<?xml version="1.0" encoding="UTF-8"?><svg id="Layer_1" xmlns="http://www.w3.org/2000/svg" viewBox="0 0 200 200"><defs><style>.cls-1{stroke-width:0px;}</style></defs><path class="cls-1" d="m107.44,95.93c-.52-.04-.77-.65-.42-1.04,3.04-3.32,11.57-13.69,8.98-22.92-2.29-8.16-11.08-8.02-15.64-7.36-1.64.24-2.89,1.57-3.04,3.22-.71,7.96-1.59,30.87,1.23,39.41.22.67.76,1.2,1.45,1.34,3.74.71,11.84-3.17,11.57-8.09-.2-3.61-2.54-4.43-4.13-4.56Zm-6.88-1.49l-.45-9.1c-.07-1.47-.08-2.94-.02-4.42l.4-10.59c0-.96.74-1.76,1.69-1.81,3.6-.2,11.58.16,10.53,7.58-1.35,9.51-5.91,15.4-10.98,18.94-.5.35-1.18,0-1.18-.61Zm2.21,10.54c-.59.06-1.11-.36-1.19-.94l-.4-3.07c-.05-.42.2-.81.6-.93,1.75-.52,6.18-1.62,6.03.72-.21,3.29-3.36,4.05-5.05,4.23Z"/><path class="cls-1" d="m148.14,95.93c-.52-.04-.77-.65-.42-1.04,3.04-3.32,11.57-13.69,8.98-22.92-2.29-8.16-11.08-8.02-15.64-7.36-1.64.24-2.89,1.57-3.04,3.22-.71,7.96-1.59,30.87,1.23,39.41.22.67.76,1.2,1.45,1.34,3.74.71,11.84-3.17,11.57-8.09-.2-3.61-2.54-4.43-4.13-4.56Zm-6.88-1.49l-.45-9.1c-.07-1.47-.08-2.94-.02-4.42l.4-10.59c0-.96.74-1.76,1.69-1.81,3.6-.2,11.58.16,10.53,7.58-1.35,9.51-5.91,15.4-10.98,18.94-.5.35-1.18,0-1.18-.61Zm2.21,10.54c-.59.06-1.11-.36-1.19-.94l-.4-3.07c-.05-.42.2-.81.6-.93,1.75-.52,6.18-1.62,6.03.72-.21,3.29-3.36,4.05-5.05,4.23Z"/><path class="cls-1" d="m130.19,66.29c-.07-.66-.44-1.26-1.02-1.58-.8-.44-1.98-.68-3.02.73-1.78,2.41-9.75,35.37-9.06,41.45.43,2.16,1.63,1.86,2.47,1.33.54-.34.88-.91.95-1.55.34-3.24,1.59-14.87,2.67-18.85.21-.78.92-1.32,1.73-1.32h1.89c.89,0,1.42.48,1.5,1.12l2.57,21.63c.09.79.55,1.53,1.28,1.86.69.31,1.58.28,2.38-1.07l-4.33-43.75Zm-2.61,16.52h-2.48c-.2,0-.36-.19-.32-.39.69-4.39,1.57-6.33,2.14-7.16.18-.26.58-.14.6.17l.4,7.02c.01.19-.14.35-.33.35Z"/><path class="cls-1" d="m163.62,67.92s-.54,16.89,3.97,16.89,8.18-16.89,8.18-16.89c0,0,2.06-1.99,3.75,0s1.53,37.99-9.02,38.68c-6.9-.54-7.8-9.02-7.8-9.02,0,0,.46-1.76,3.21-.46,0,0,2.22,6.11,4.2,5.58s5.35-4.28,5.89-22.17c0,0-4.05,8.25-8.87,8.25s-8.87-11.24-6.88-21.1c.96-1.83,3.44-.92,3.36.23Z"/><path class="cls-1" d="m113.54,111.27c-1.38,0-4.72.33-6.04.47-.32.03-.55.3-.55.62v1.01h.54v12.27h-.54v1.6c0,.34.28.62.62.62h7.47c.11,0,.21-.03.31-.08.82-.48,4.78-3.07,4.78-8.56,0-6.11-4.85-7.94-6.59-7.94Zm-1.38,15.55v-13.9c0-.36.31-.65.67-.62,1.31.12,2.48.95,2.48,6.63,0,7.4-1.62,8.49-2.54,8.52-.34,0-.61-.28-.61-.62Z"/><path class="cls-1" d="m134.69,126.24c-1.26,0-2.15-.98-2.15-2.47,0,0,6.71-.05,6.3-4.46-.4-4.32-5.54-5.62-9.04-3.23-2.6,1.64-2.87,5.04-2.87,5.04,0,0-.34,7.35,6.34,7.07,5.83-.25,4.74-3.52,4.74-3.52,0,0,0,1.57-3.32,1.57Zm-2.48-3.98l-.09-4.25c-.02-.81.42-1.58,1.16-1.9.17-.07.31-.11.4-.07.85.33.91,2.61.91,4.26s-1.26,2.19-1.94,2.33c-.23.04-.44-.13-.44-.36Z"/><path class="cls-1" d="m145.58,115.39h4.58c.51,0,.92.41.92.92v8.4c0,.52.43.95.95.92,1.33-.06,3.62-.72,4-4.48.06-.54-.37-1.02-.91-1.01-1.27.02-3.28-.39-2.78-3.28.6-3.49,4.68-1.7,5.39.07.03.07.04.13.06.2.33,1.98-.45,10.9-7.88,10.9-4.33,0-3.9-2.44-3.9-2.44v-9.09h-.63l.2-1.13Z"/><path class="cls-1" d="m169.89,115.71c.57.05.98.58.88,1.14-.2,1.16.57,3.33,2.87,2.56,3.39-1.13-.09-4.36-2.38-4.36s-6.65-.23-7.08,4.16c0,2.11,2.42,3.43,3.87,4.03.95.39,1.77,1.08,2.21,2.01.49,1.04.93,2.18-1.6,2.18,0,0-1.58-.39-.32-1.65s-.95-2.61-2.26-2.61-2.33,1.88-1.89,2.95c.69,1.66,1.72,2.38,5.99,2.38s6.16-4.3,4.5-5.99c-1.26-1.29-6.26-3.73-6.71-5.45-.3-1.13.95-1.45,1.93-1.35Z"/><path class="cls-1" d="m34.27,90.84l-3.71-1.63-5.19-2.28c-.46-.2-.98.14-.98.64h0c0,.54.32,1.03.82,1.24l1.84.78,3.83,1.62c.63.27.63,1.16,0,1.43l-3.83,1.62-1.84.78c-.5.21-.82.7-.82,1.24h0c0,.5.52.84.98.64l5.2-2.28,3.71-1.63c.94-.41.94-1.75,0-2.17Z"/><path class="cls-1" d="m40.61,128.57c-.32,0-.63-.12-.87-.35-.33-.31-.47-.76-.38-1.2l1.52-7.17,35.92-35.92,6.81,6.81-35.91,35.91-6.74,1.87c-.12.03-.23.05-.35.05Zm1.18-8.22l-1.45,6.88c-.03.14.05.23.08.26.03.03.13.1.27.07l6.49-1.8,35.02-35.02-5.4-5.4-35,35Z"/><path class="cls-1" d="m82.98,91.37l-6.81-6.81,3.8-3.8c.72-.72,1.88-.72,2.6,0l4.21,4.21c.72.72.72,1.89,0,2.6l-3.8,3.8Zm-5.4-6.81l5.4,5.4,3.09-3.09c.33-.33.33-.86,0-1.19l-4.21-4.21c-.33-.33-.86-.33-1.19,0l-3.09,3.09Z"/><rect class="cls-1" x="36.81" y="104.67" width="50.26" height="1" transform="translate(-56.22 74.6) rotate(-45)"/><rect class="cls-1" x="72.52" y="90.15" width="1" height="8.39" transform="translate(-45.32 79.26) rotate(-45)"/><path class="cls-1" d="m19.85,116.67v-32.33c0-3,2.44-5.45,5.45-5.45h44.62c3,0,5.45,2.44,5.45,5.45v1.85h1v-1.85c0-3.56-2.89-6.45-6.45-6.45H25.3c-3.56,0-6.45,2.89-6.45,6.45v32.33c0,3.56,2.89,6.45,6.45,6.45h15.66v-1h-15.66c-3,0-5.45-2.44-5.45-5.45Z"/><path class="cls-1" d="m75.37,97.66v19.02c0,3-2.44,5.45-5.45,5.45h-18.82v1h18.82c3.56,0,6.45-2.89,6.45-6.45v-19.02h-1Z"/></svg>