<svg xmlns="http://www.w3.org/2000/svg" xmlns:xlink="http://www.w3.org/1999/xlink" width="500" zoomAndPan="magnify" viewBox="0 0 375 112.499997" height="150" preserveAspectRatio="xMidYMid meet" version="1.0"><path fill="#000000" d="M 192.179688 55.332031 C 191.316406 55.265625 190.902344 54.253906 191.484375 53.609375 C 196.523438 48.105469 210.664062 30.914062 206.367188 15.613281 C 202.574219 2.089844 188.003906 2.320312 180.445312 3.414062 C 177.726562 3.8125 175.652344 6.015625 175.40625 8.753906 C 174.226562 21.945312 172.769531 59.921875 177.441406 74.078125 C 177.808594 75.191406 178.703125 76.070312 179.847656 76.300781 C 186.046875 77.476562 199.472656 71.046875 199.027344 62.890625 C 198.695312 56.90625 194.816406 55.546875 192.179688 55.332031 Z M 180.773438 52.863281 L 180.027344 37.777344 C 179.914062 35.339844 179.898438 32.902344 179.996094 30.449219 L 180.660156 12.894531 C 180.660156 11.304688 181.886719 9.980469 183.460938 9.894531 C 189.429688 9.5625 202.65625 10.160156 200.914062 22.460938 C 198.675781 38.226562 191.117188 47.988281 182.714844 53.855469 C 181.886719 54.4375 180.757812 53.855469 180.757812 52.84375 Z M 184.4375 70.332031 C 183.460938 70.433594 182.597656 69.738281 182.464844 68.773438 L 181.804688 63.6875 C 181.71875 62.988281 182.132812 62.34375 182.796875 62.144531 C 185.699219 61.28125 193.042969 59.460938 192.792969 63.339844 C 192.445312 68.792969 187.222656 70.050781 184.421875 70.351562 Z M 184.4375 70.332031 " fill-opacity="1" fill-rule="nonzero"/><path fill="#000000" d="M 259.644531 55.332031 C 258.785156 55.265625 258.367188 54.253906 258.949219 53.609375 C 263.988281 48.105469 278.128906 30.914062 273.835938 15.613281 C 270.039062 2.089844 255.46875 2.320312 247.910156 3.414062 C 245.191406 3.8125 243.117188 6.015625 242.871094 8.753906 C 241.691406 21.945312 240.234375 59.921875 244.910156 74.078125 C 245.273438 75.191406 246.167969 76.070312 247.3125 76.300781 C 253.511719 77.476562 266.9375 71.046875 266.492188 62.890625 C 266.160156 56.90625 262.28125 55.546875 259.644531 55.332031 Z M 248.242188 52.863281 L 247.496094 37.777344 C 247.378906 35.339844 247.363281 32.902344 247.460938 30.449219 L 248.125 12.894531 C 248.125 11.304688 249.351562 9.980469 250.925781 9.894531 C 256.894531 9.5625 270.121094 10.160156 268.382812 22.460938 C 266.144531 38.226562 258.585938 47.988281 250.179688 53.855469 C 249.351562 54.4375 248.222656 53.855469 248.222656 52.84375 Z M 251.902344 70.332031 C 250.925781 70.433594 250.0625 69.738281 249.929688 68.773438 L 249.269531 63.6875 C 249.1875 62.988281 249.601562 62.34375 250.261719 62.144531 C 253.164062 61.28125 260.507812 59.460938 260.257812 63.339844 C 259.910156 68.792969 254.6875 70.050781 251.886719 70.351562 Z M 251.902344 70.332031 " fill-opacity="1" fill-rule="nonzero"/><path fill="#000000" d="M 229.890625 6.199219 C 229.773438 5.105469 229.160156 4.109375 228.199219 3.582031 C 226.875 2.851562 224.917969 2.453125 223.195312 4.789062 C 220.242188 8.785156 207.03125 63.421875 208.175781 73.5 C 208.886719 77.078125 210.878906 76.582031 212.269531 75.703125 C 213.164062 75.140625 213.730469 74.195312 213.84375 73.132812 C 214.410156 67.765625 216.480469 48.484375 218.269531 41.886719 C 218.617188 40.59375 219.796875 39.699219 221.136719 39.699219 L 224.269531 39.699219 C 225.746094 39.699219 226.625 40.496094 226.757812 41.558594 L 231.019531 77.410156 C 231.167969 78.722656 231.929688 79.949219 233.140625 80.496094 C 234.285156 81.007812 235.757812 80.957031 237.085938 78.722656 L 229.90625 6.199219 Z M 225.5625 33.582031 L 221.453125 33.582031 C 221.121094 33.582031 220.855469 33.269531 220.921875 32.9375 C 222.066406 25.660156 223.527344 22.445312 224.46875 21.066406 C 224.769531 20.636719 225.433594 20.835938 225.464844 21.351562 L 226.128906 32.988281 C 226.144531 33.300781 225.894531 33.566406 225.582031 33.566406 Z M 225.5625 33.582031 " fill-opacity="1" fill-rule="nonzero"/><path fill="#000000" d="M 285.304688 8.902344 C 285.304688 8.902344 284.410156 36.898438 291.886719 36.898438 C 299.363281 36.898438 305.445312 8.902344 305.445312 8.902344 C 305.445312 8.902344 308.859375 5.601562 311.660156 8.902344 C 314.464844 12.199219 314.199219 71.875 296.710938 73.019531 C 285.273438 72.125 283.78125 58.066406 283.78125 58.066406 C 283.78125 58.066406 284.542969 55.148438 289.101562 57.304688 C 289.101562 57.304688 292.78125 67.433594 296.0625 66.554688 C 299.34375 65.675781 304.933594 59.460938 305.828125 29.804688 C 305.828125 29.804688 299.113281 43.480469 291.125 43.480469 C 283.132812 43.480469 276.421875 24.847656 279.71875 8.503906 C 281.308594 5.46875 285.421875 6.976562 285.289062 8.886719 Z M 285.304688 8.902344 " fill-opacity="1" fill-rule="nonzero"/><path fill="#000000" d="M 202.292969 80.757812 C 200.003906 80.757812 194.46875 81.308594 192.277344 81.539062 C 191.75 81.589844 191.367188 82.035156 191.367188 82.566406 L 191.367188 84.242188 L 192.261719 84.242188 L 192.261719 104.578125 L 191.367188 104.578125 L 191.367188 107.230469 C 191.367188 107.796875 191.832031 108.261719 192.394531 108.261719 L 204.777344 108.261719 C 204.960938 108.261719 205.125 108.210938 205.292969 108.128906 C 206.652344 107.332031 213.214844 103.039062 213.214844 93.9375 C 213.214844 83.808594 205.175781 80.777344 202.292969 80.777344 Z M 200.003906 106.535156 L 200.003906 83.496094 C 200.003906 82.898438 200.515625 82.417969 201.113281 82.46875 C 203.285156 82.664062 205.226562 84.042969 205.226562 93.457031 C 205.226562 105.722656 202.539062 107.53125 201.015625 107.582031 C 200.453125 107.582031 200.003906 107.117188 200.003906 106.550781 Z M 200.003906 106.535156 " fill-opacity="1" fill-rule="nonzero"/><path fill="#000000" d="M 237.351562 105.574219 C 235.261719 105.574219 233.785156 103.949219 233.785156 101.480469 C 233.785156 101.480469 244.910156 101.398438 244.230469 94.085938 C 243.566406 86.925781 235.046875 84.769531 229.246094 88.734375 C 224.933594 91.453125 224.488281 97.085938 224.488281 97.085938 C 224.488281 97.085938 223.921875 109.269531 234.996094 108.808594 C 244.660156 108.390625 242.851562 102.972656 242.851562 102.972656 C 242.851562 102.972656 242.851562 105.574219 237.351562 105.574219 Z M 233.238281 98.976562 L 233.089844 91.933594 C 233.058594 90.589844 233.785156 89.3125 235.011719 88.78125 C 235.292969 88.667969 235.527344 88.601562 235.675781 88.667969 C 237.085938 89.214844 237.183594 92.992188 237.183594 95.726562 C 237.183594 98.464844 235.097656 99.359375 233.96875 99.589844 C 233.585938 99.65625 233.238281 99.375 233.238281 98.992188 Z M 233.238281 98.976562 " fill-opacity="1" fill-rule="nonzero"/><path fill="#000000" d="M 255.402344 87.589844 L 262.992188 87.589844 C 263.839844 87.589844 264.519531 88.269531 264.519531 89.113281 L 264.519531 103.039062 C 264.519531 103.898438 265.230469 104.613281 266.09375 104.5625 C 268.296875 104.464844 272.09375 103.371094 272.722656 97.136719 C 272.824219 96.242188 272.109375 95.445312 271.214844 95.464844 C 269.109375 95.496094 265.777344 94.816406 266.605469 90.027344 C 267.601562 84.242188 274.363281 87.207031 275.542969 90.140625 C 275.589844 90.257812 275.609375 90.355469 275.640625 90.472656 C 276.1875 93.753906 274.894531 108.542969 262.578125 108.542969 C 255.402344 108.542969 256.113281 104.496094 256.113281 104.496094 L 256.113281 89.429688 L 255.070312 89.429688 L 255.402344 87.554688 Z M 255.402344 87.589844 " fill-opacity="1" fill-rule="nonzero"/><path fill="#000000" d="M 295.699219 88.121094 C 296.644531 88.203125 297.324219 89.082031 297.15625 90.007812 C 296.824219 91.933594 298.101562 95.527344 301.914062 94.253906 C 307.535156 92.378906 301.765625 87.027344 297.96875 87.027344 C 294.171875 87.027344 286.945312 86.644531 286.234375 93.921875 C 286.234375 97.417969 290.246094 99.605469 292.648438 100.601562 C 294.222656 101.246094 295.582031 102.390625 296.3125 103.933594 C 297.125 105.65625 297.855469 107.546875 293.660156 107.546875 C 293.660156 107.546875 291.039062 106.902344 293.128906 104.8125 C 295.21875 102.722656 291.554688 100.484375 289.382812 100.484375 C 287.210938 100.484375 285.519531 103.601562 286.25 105.375 C 287.394531 108.128906 289.101562 109.320312 296.179688 109.320312 C 303.257812 109.320312 306.390625 102.191406 303.640625 99.390625 C 301.550781 97.253906 293.261719 93.207031 292.515625 90.355469 C 292.019531 88.484375 294.089844 87.953125 295.714844 88.121094 Z M 295.699219 88.121094 " fill-opacity="1" fill-rule="nonzero"/><path fill="#000000" d="M 70.890625 46.894531 L 64.742188 44.191406 L 56.136719 40.414062 C 55.375 40.082031 54.511719 40.644531 54.511719 41.472656 C 54.511719 42.367188 55.042969 43.179688 55.871094 43.527344 L 58.921875 44.820312 L 65.269531 47.507812 C 66.316406 47.957031 66.316406 49.429688 65.269531 49.878906 L 58.921875 52.5625 L 55.871094 53.855469 C 55.042969 54.203125 54.511719 55.015625 54.511719 55.910156 C 54.511719 56.742188 55.375 57.304688 56.136719 56.972656 L 64.757812 53.191406 L 70.90625 50.492188 C 72.464844 49.8125 72.464844 47.589844 70.90625 46.894531 Z M 70.890625 46.894531 " fill-opacity="1" fill-rule="nonzero"/><path fill="#000000" d="M 81.398438 109.4375 C 80.871094 109.4375 80.355469 109.238281 79.957031 108.855469 C 79.410156 108.34375 79.179688 107.597656 79.328125 106.867188 L 81.847656 94.980469 L 141.390625 35.441406 L 152.679688 46.730469 L 93.152344 106.253906 L 81.980469 109.355469 C 81.78125 109.402344 81.597656 109.4375 81.398438 109.4375 Z M 83.355469 95.8125 L 80.953125 107.214844 C 80.902344 107.449219 81.035156 107.597656 81.085938 107.648438 C 81.136719 107.695312 81.300781 107.8125 81.53125 107.761719 L 92.289062 104.777344 L 150.339844 46.730469 L 141.390625 37.777344 L 83.371094 95.792969 Z M 83.355469 95.8125 " fill-opacity="1" fill-rule="nonzero"/><path fill="#000000" d="M 151.632812 47.773438 L 140.34375 36.484375 L 146.644531 30.183594 C 147.839844 28.992188 149.761719 28.992188 150.953125 30.183594 L 157.933594 37.164062 C 159.125 38.359375 159.125 40.296875 157.933594 41.472656 Z M 142.683594 36.484375 L 151.632812 45.4375 L 156.757812 40.3125 C 157.304688 39.765625 157.304688 38.886719 156.757812 38.339844 L 149.777344 31.363281 C 149.230469 30.816406 148.351562 30.816406 147.804688 31.363281 Z M 142.683594 36.484375 " fill-opacity="1" fill-rule="nonzero"/><path fill="#000000" d="M 86.722656 99.515625 L 145.632812 40.605469 L 146.804688 41.777344 L 87.894531 100.6875 Z M 86.722656 99.515625 " fill-opacity="1" fill-rule="nonzero"/><path fill="#000000" d="M 129.628906 48.363281 L 130.800781 47.191406 L 140.636719 57.023438 L 139.464844 58.195312 Z M 129.628906 48.363281 " fill-opacity="1" fill-rule="nonzero"/><path fill="#000000" d="M 46.988281 89.710938 L 46.988281 36.121094 C 46.988281 31.148438 51.03125 27.085938 56.023438 27.085938 L 129.984375 27.085938 C 134.957031 27.085938 139.019531 31.128906 139.019531 36.121094 L 139.019531 39.1875 L 140.675781 39.1875 L 140.675781 36.121094 C 140.675781 30.21875 135.886719 25.429688 129.984375 25.429688 L 56.023438 25.429688 C 50.121094 25.429688 45.328125 30.21875 45.328125 36.121094 L 45.328125 89.710938 C 45.328125 95.613281 50.121094 100.402344 56.023438 100.402344 L 81.980469 100.402344 L 81.980469 98.746094 L 56.023438 98.746094 C 51.046875 98.746094 46.988281 94.699219 46.988281 89.710938 Z M 46.988281 89.710938 " fill-opacity="1" fill-rule="nonzero"/><path fill="#000000" d="M 139.019531 58.199219 L 139.019531 89.726562 C 139.019531 94.699219 134.976562 98.761719 129.984375 98.761719 L 98.789062 98.761719 L 98.789062 100.417969 L 129.984375 100.417969 C 135.886719 100.417969 140.675781 95.628906 140.675781 89.726562 L 140.675781 58.199219 Z M 139.019531 58.199219 " fill-opacity="1" fill-rule="nonzero"/></svg>