<svg xmlns="http://www.w3.org/2000/svg" xmlns:xlink="http://www.w3.org/1999/xlink" width="500" zoomAndPan="magnify" viewBox="0 0 375 112.499997" height="150" preserveAspectRatio="xMidYMid meet" version="1.0"><path fill="#ffffff" d="M 192.300781 55.488281 C 191.441406 55.421875 191.027344 54.410156 191.605469 53.761719 C 196.648438 48.257812 210.796875 31.058594 206.5 15.746094 C 202.703125 2.214844 188.121094 2.445312 180.558594 3.539062 C 177.839844 3.9375 175.765625 6.144531 175.515625 8.882812 C 174.339844 22.082031 172.878906 60.082031 177.558594 74.246094 C 177.921875 75.359375 178.816406 76.238281 179.960938 76.46875 C 186.164062 77.648438 199.601562 71.210938 199.152344 63.050781 C 198.820312 57.0625 194.941406 55.703125 192.300781 55.488281 Z M 180.890625 53.015625 L 180.144531 37.921875 C 180.027344 35.484375 180.011719 33.046875 180.113281 30.59375 L 180.773438 13.027344 C 180.773438 11.433594 182.003906 10.109375 183.578125 10.027344 C 189.550781 9.695312 202.785156 10.289062 201.042969 22.597656 C 198.804688 38.371094 191.242188 48.140625 182.832031 54.011719 C 182.003906 54.59375 180.875 54.011719 180.875 53 Z M 184.558594 70.5 C 183.578125 70.597656 182.714844 69.902344 182.582031 68.941406 L 181.917969 63.847656 C 181.835938 63.152344 182.25 62.503906 182.914062 62.304688 C 185.816406 61.441406 193.164062 59.617188 192.917969 63.5 C 192.566406 68.957031 187.34375 70.21875 184.539062 70.515625 Z M 184.558594 70.5 " fill-opacity="1" fill-rule="nonzero"/><path fill="#ffffff" d="M 259.808594 55.488281 C 258.945312 55.421875 258.53125 54.410156 259.113281 53.761719 C 264.15625 48.257812 278.300781 31.058594 274.007812 15.746094 C 270.207031 2.214844 255.628906 2.445312 248.066406 3.539062 C 245.34375 3.9375 243.273438 6.144531 243.023438 8.882812 C 241.847656 22.082031 240.386719 60.082031 245.0625 74.246094 C 245.429688 75.359375 246.324219 76.238281 247.46875 76.46875 C 253.671875 77.648438 267.105469 71.210938 266.660156 63.050781 C 266.328125 57.0625 262.445312 55.703125 259.808594 55.488281 Z M 248.398438 53.015625 L 247.652344 37.921875 C 247.535156 35.484375 247.519531 33.046875 247.617188 30.59375 L 248.28125 13.027344 C 248.28125 11.433594 249.507812 10.109375 251.085938 10.027344 C 257.054688 9.695312 270.292969 10.289062 268.550781 22.597656 C 266.308594 38.371094 258.746094 48.140625 250.339844 54.011719 C 249.507812 54.59375 248.378906 54.011719 248.378906 53 Z M 252.0625 70.5 C 251.085938 70.597656 250.222656 69.902344 250.089844 68.941406 L 249.425781 63.847656 C 249.34375 63.152344 249.757812 62.503906 250.421875 62.304688 C 253.324219 61.441406 260.671875 59.617188 260.421875 63.5 C 260.074219 68.957031 254.847656 70.21875 252.046875 70.515625 Z M 252.0625 70.5 " fill-opacity="1" fill-rule="nonzero"/><path fill="#ffffff" d="M 230.035156 6.328125 C 229.921875 5.230469 229.304688 4.238281 228.34375 3.707031 C 227.019531 2.976562 225.058594 2.578125 223.335938 4.917969 C 220.382812 8.914062 207.164062 63.582031 208.308594 73.667969 C 209.023438 77.25 211.011719 76.753906 212.40625 75.871094 C 213.300781 75.308594 213.863281 74.363281 213.980469 73.300781 C 214.542969 67.929688 216.617188 48.636719 218.410156 42.035156 C 218.757812 40.742188 219.933594 39.847656 221.277344 39.847656 L 224.414062 39.847656 C 225.890625 39.847656 226.769531 40.644531 226.902344 41.707031 L 231.164062 77.582031 C 231.3125 78.890625 232.078125 80.117188 233.289062 80.667969 C 234.433594 81.179688 235.90625 81.128906 237.234375 78.890625 L 230.054688 6.328125 Z M 225.707031 33.726562 L 221.59375 33.726562 C 221.261719 33.726562 220.996094 33.414062 221.0625 33.082031 C 222.207031 25.800781 223.667969 22.582031 224.613281 21.203125 C 224.910156 20.773438 225.574219 20.972656 225.609375 21.488281 L 226.269531 33.128906 C 226.289062 33.445312 226.039062 33.710938 225.722656 33.710938 Z M 225.707031 33.726562 " fill-opacity="1" fill-rule="nonzero"/><path fill="#ffffff" d="M 285.484375 9.03125 C 285.484375 9.03125 284.589844 37.042969 292.070312 37.042969 C 299.550781 37.042969 305.636719 9.03125 305.636719 9.03125 C 305.636719 9.03125 309.054688 5.730469 311.855469 9.03125 C 314.660156 12.332031 314.394531 72.042969 296.894531 73.1875 C 285.449219 72.289062 283.957031 58.226562 283.957031 58.226562 C 283.957031 58.226562 284.722656 55.304688 289.28125 57.460938 C 289.28125 57.460938 292.964844 67.597656 296.25 66.71875 C 299.53125 65.839844 305.121094 59.617188 306.019531 29.945312 C 306.019531 29.945312 299.300781 43.628906 291.304688 43.628906 C 283.3125 43.628906 276.59375 24.984375 279.894531 8.632812 C 281.488281 5.597656 285.601562 7.105469 285.46875 9.015625 Z M 285.484375 9.03125 " fill-opacity="1" fill-rule="nonzero"/><path fill="#ffffff" d="M 202.421875 80.933594 C 200.132812 80.933594 194.589844 81.480469 192.402344 81.710938 C 191.871094 81.761719 191.488281 82.207031 191.488281 82.738281 L 191.488281 84.414062 L 192.386719 84.414062 L 192.386719 104.765625 L 191.488281 104.765625 L 191.488281 107.421875 C 191.488281 107.984375 191.953125 108.449219 192.519531 108.449219 L 204.910156 108.449219 C 205.089844 108.449219 205.257812 108.398438 205.421875 108.316406 C 206.78125 107.519531 213.351562 103.222656 213.351562 94.117188 C 213.351562 83.984375 205.304688 80.949219 202.421875 80.949219 Z M 200.132812 106.722656 L 200.132812 83.667969 C 200.132812 83.070312 200.644531 82.589844 201.242188 82.640625 C 203.414062 82.839844 205.355469 84.214844 205.355469 93.636719 C 205.355469 105.910156 202.667969 107.71875 201.144531 107.769531 C 200.578125 107.769531 200.132812 107.304688 200.132812 106.738281 Z M 200.132812 106.722656 " fill-opacity="1" fill-rule="nonzero"/><path fill="#ffffff" d="M 237.5 105.761719 C 235.410156 105.761719 233.933594 104.136719 233.933594 101.664062 C 233.933594 101.664062 245.0625 101.582031 244.382812 94.265625 C 243.71875 87.101562 235.195312 84.945312 229.390625 88.910156 C 225.078125 91.628906 224.628906 97.269531 224.628906 97.269531 C 224.628906 97.269531 224.066406 109.460938 235.144531 108.996094 C 244.816406 108.582031 243.007812 103.15625 243.007812 103.15625 C 243.007812 103.15625 243.007812 105.761719 237.5 105.761719 Z M 233.386719 99.160156 L 233.238281 92.109375 C 233.203125 90.765625 233.933594 89.488281 235.160156 88.960938 C 235.445312 88.84375 235.675781 88.777344 235.824219 88.84375 C 237.234375 89.390625 237.335938 93.171875 237.335938 95.910156 C 237.335938 98.644531 235.246094 99.542969 234.117188 99.773438 C 233.734375 99.839844 233.386719 99.558594 233.386719 99.175781 Z M 233.386719 99.160156 " fill-opacity="1" fill-rule="nonzero"/><path fill="#ffffff" d="M 255.5625 87.765625 L 263.160156 87.765625 C 264.003906 87.765625 264.683594 88.445312 264.683594 89.292969 L 264.683594 103.222656 C 264.683594 104.085938 265.398438 104.800781 266.261719 104.75 C 268.464844 104.648438 272.265625 103.554688 272.894531 97.320312 C 272.996094 96.421875 272.28125 95.628906 271.386719 95.644531 C 269.28125 95.675781 265.945312 94.996094 266.773438 90.203125 C 267.769531 84.414062 274.539062 87.382812 275.714844 90.320312 C 275.765625 90.4375 275.78125 90.535156 275.8125 90.652344 C 276.363281 93.933594 275.066406 108.730469 262.746094 108.730469 C 255.5625 108.730469 256.277344 104.683594 256.277344 104.683594 L 256.277344 89.605469 L 255.230469 89.605469 L 255.5625 87.730469 Z M 255.5625 87.765625 " fill-opacity="1" fill-rule="nonzero"/><path fill="#ffffff" d="M 295.882812 88.296875 C 296.828125 88.378906 297.507812 89.257812 297.34375 90.1875 C 297.011719 92.109375 298.289062 95.710938 302.105469 94.433594 C 307.726562 92.558594 301.953125 87.203125 298.15625 87.203125 C 294.359375 87.203125 287.125 86.820312 286.414062 94.101562 C 286.414062 97.601562 290.425781 99.789062 292.832031 100.785156 C 294.40625 101.433594 295.769531 102.578125 296.496094 104.121094 C 297.308594 105.84375 298.039062 107.734375 293.84375 107.734375 C 293.84375 107.734375 291.222656 107.089844 293.3125 105 C 295.402344 102.910156 291.738281 100.667969 289.5625 100.667969 C 287.390625 100.667969 285.699219 103.789062 286.429688 105.5625 C 287.574219 108.316406 289.28125 109.511719 296.363281 109.511719 C 303.445312 109.511719 306.582031 102.378906 303.828125 99.574219 C 301.738281 97.433594 293.445312 93.386719 292.699219 90.535156 C 292.203125 88.660156 294.273438 88.128906 295.898438 88.296875 Z M 295.882812 88.296875 " fill-opacity="1" fill-rule="nonzero"/><path fill="#ffffff" d="M 70.941406 47.046875 L 64.789062 44.34375 L 56.179688 40.5625 C 55.417969 40.230469 54.554688 40.792969 54.554688 41.621094 C 54.554688 42.519531 55.085938 43.332031 55.914062 43.679688 L 58.964844 44.972656 L 65.320312 47.660156 C 66.363281 48.109375 66.363281 49.582031 65.320312 50.03125 L 58.964844 52.71875 L 55.914062 54.011719 C 55.085938 54.359375 54.554688 55.171875 54.554688 56.070312 C 54.554688 56.898438 55.417969 57.460938 56.179688 57.128906 L 64.804688 53.347656 L 70.957031 50.644531 C 72.515625 49.964844 72.515625 47.742188 70.957031 47.046875 Z M 70.941406 47.046875 " fill-opacity="1" fill-rule="nonzero"/><path fill="#ffffff" d="M 81.457031 109.625 C 80.925781 109.625 80.410156 109.425781 80.015625 109.046875 C 79.464844 108.53125 79.234375 107.785156 79.382812 107.054688 L 81.90625 95.164062 L 141.484375 35.585938 L 152.777344 46.878906 L 93.214844 106.441406 L 82.039062 109.542969 C 81.839844 109.59375 81.65625 109.625 81.457031 109.625 Z M 83.414062 95.992188 L 81.007812 107.402344 C 80.960938 107.636719 81.09375 107.785156 81.140625 107.835938 C 81.191406 107.882812 81.355469 108 81.589844 107.949219 L 92.355469 104.964844 L 150.4375 46.878906 L 141.484375 37.921875 Z M 83.414062 95.992188 " fill-opacity="1" fill-rule="nonzero"/><path fill="#ffffff" d="M 151.734375 47.925781 L 140.4375 36.628906 L 146.742188 30.328125 C 147.933594 29.132812 149.859375 29.132812 151.050781 30.328125 L 158.035156 37.308594 C 159.230469 38.503906 159.230469 40.445312 158.035156 41.621094 Z M 142.777344 36.628906 L 151.734375 45.585938 L 156.859375 40.460938 C 157.40625 39.914062 157.40625 39.035156 156.859375 38.488281 L 149.875 31.503906 C 149.328125 30.957031 148.449219 30.957031 147.902344 31.503906 Z M 142.777344 36.628906 " fill-opacity="1" fill-rule="nonzero"/><path fill="#ffffff" d="M 86.78125 99.699219 L 145.730469 40.75 L 146.902344 41.925781 L 87.957031 100.871094 Z M 86.78125 99.699219 " fill-opacity="1" fill-rule="nonzero"/><path fill="#ffffff" d="M 129.714844 48.515625 L 130.886719 47.34375 L 140.726562 57.183594 L 139.554688 58.355469 Z M 129.714844 48.515625 " fill-opacity="1" fill-rule="nonzero"/><path fill="#ffffff" d="M 47.023438 89.886719 L 47.023438 36.265625 C 47.023438 31.289062 51.070312 27.226562 56.0625 27.226562 L 130.070312 27.226562 C 135.046875 27.226562 139.109375 31.273438 139.109375 36.265625 L 139.109375 39.332031 L 140.769531 39.332031 L 140.769531 36.265625 C 140.769531 30.359375 135.976562 25.566406 130.070312 25.566406 L 56.0625 25.566406 C 50.160156 25.566406 45.363281 30.359375 45.363281 36.265625 L 45.363281 89.886719 C 45.363281 95.792969 50.160156 100.585938 56.0625 100.585938 L 82.039062 100.585938 L 82.039062 98.929688 L 56.0625 98.929688 C 51.085938 98.929688 47.023438 94.878906 47.023438 89.886719 Z M 47.023438 89.886719 " fill-opacity="1" fill-rule="nonzero"/><path fill="#ffffff" d="M 139.109375 58.359375 L 139.109375 89.90625 C 139.109375 94.878906 135.0625 98.945312 130.070312 98.945312 L 98.855469 98.945312 L 98.855469 100.601562 L 130.070312 100.601562 C 135.976562 100.601562 140.769531 95.808594 140.769531 89.90625 L 140.769531 58.359375 Z M 139.109375 58.359375 " fill-opacity="1" fill-rule="nonzero"/></svg>