<svg xmlns="http://www.w3.org/2000/svg" xmlns:xlink="http://www.w3.org/1999/xlink" width="500" zoomAndPan="magnify" viewBox="0 0 375 374.999991" height="500" preserveAspectRatio="xMidYMid meet" version="1.0"><defs><filter x="0%" y="0%" width="100%" height="100%" id="63c820ea2b"><feColorMatrix values="0 0 0 0 1 0 0 0 0 1 0 0 0 0 1 0 0 0 1 0" color-interpolation-filters="sRGB"/></filter><mask id="96f824140c"><g filter="url(#63c820ea2b)"><rect x="-37.5" width="450" fill="#000000" y="-37.499999" height="449.999989" fill-opacity="0.77"/></g></mask><clipPath id="3408b4d373"><path d="M 0.078125 0.640625 L 368 0.640625 L 368 369 L 0.078125 369 Z M 0.078125 0.640625 " clip-rule="nonzero"/></clipPath><clipPath id="c410a75e3d"><rect x="0" width="371" y="0" height="372"/></clipPath></defs><g mask="url(#96f824140c)"><g transform="matrix(1, 0, 0, 1, 4, 2)"><g clip-path="url(#c410a75e3d)"><g clip-path="url(#3408b4d373)"><path fill="#e4007c" d="M 46.855469 338.582031 C 60.1875 319.015625 60.5625 289.503906 82.066406 275.90625 C 97.921875 265.855469 119.691406 270.53125 134.417969 282.570312 C 149.148438 294.613281 157.855469 311.757812 165.757812 328.796875 C 168.417969 334.898438 171.410156 340.828125 174.734375 346.589844 C 177.527344 351.472656 180.96875 355.84375 185.054688 359.707031 C 194.085938 367.984375 208.167969 372.125 218.8125 365.996094 C 229.453125 359.867188 233.109375 345.085938 234.9375 332.292969 C 236.765625 319.5 235.421875 306.222656 237.945312 293.054688 C 241.53125 275.601562 246.621094 258.597656 253.210938 242.042969 C 255.816406 233.960938 259.863281 226.6875 265.359375 220.21875 C 266.046875 219.425781 266.78125 218.683594 267.5625 217.988281 C 268.34375 217.296875 269.167969 216.652344 270.035156 216.066406 C 270.902344 215.480469 271.804688 214.953125 272.738281 214.484375 C 273.675781 214.015625 274.636719 213.609375 275.625 213.265625 C 276.613281 212.921875 277.621094 212.644531 278.644531 212.433594 C 279.671875 212.222656 280.707031 212.082031 281.75 212.003906 C 282.792969 211.929688 283.835938 211.921875 284.882812 211.984375 C 285.925781 212.042969 286.960938 212.171875 287.992188 212.371094 C 298.742188 215.273438 304.601562 227.367188 314.007812 233.871094 C 315.027344 234.539062 316.089844 235.136719 317.191406 235.664062 C 318.289062 236.191406 319.417969 236.648438 320.578125 237.027344 C 321.738281 237.410156 322.917969 237.714844 324.117188 237.941406 C 325.3125 238.171875 326.523438 238.320312 327.742188 238.390625 C 328.960938 238.460938 330.175781 238.453125 331.394531 238.363281 C 332.609375 238.273438 333.816406 238.109375 335.011719 237.863281 C 336.207031 237.617188 337.382812 237.296875 338.535156 236.898438 C 339.691406 236.5 340.8125 236.027344 341.90625 235.484375 C 364.964844 223.605469 367.542969 198.449219 367.652344 175.011719 C 367.652344 135.878906 367.972656 96.75 366.683594 57.617188 C 366.253906 44.234375 366.683594 14.613281 355.128906 4.941406 C 344.96875 -3.929688 317.339844 3.433594 308.847656 11.605469 C 306.652344 13.886719 304.753906 16.386719 303.148438 19.113281 C 301.539062 21.835938 300.269531 24.710938 299.332031 27.730469 C 289.710938 54.605469 292.453125 83.902344 289.121094 112.175781 C 287.058594 129.890625 282.652344 147.003906 275.894531 163.507812 C 270.789062 176.140625 267.457031 192.160156 257.835938 202.15625 C 250.308594 210.003906 237.785156 214.035156 228.21875 208.875 C 206.71875 197.535156 219.347656 158.617188 198.921875 145.878906 C 197.996094 145.363281 197.039062 144.914062 196.054688 144.527344 C 195.066406 144.144531 194.058594 143.824219 193.03125 143.574219 C 192.003906 143.320312 190.960938 143.140625 189.910156 143.027344 C 188.855469 142.914062 187.800781 142.871094 186.742188 142.898438 C 185.683594 142.929688 184.628906 143.027344 183.582031 143.195312 C 182.539062 143.363281 181.507812 143.601562 180.496094 143.90625 C 179.480469 144.214844 178.492188 144.585938 177.527344 145.023438 C 176.5625 145.460938 175.632812 145.960938 174.734375 146.523438 C 171.589844 148.226562 168.710938 150.296875 166.097656 152.738281 C 163.484375 155.179688 161.21875 157.910156 159.308594 160.929688 C 150.976562 174.3125 148.179688 190.492188 140.117188 203.929688 C 132.054688 217.371094 114.585938 228.011719 100.824219 220.378906 C 91.042969 215.003906 87.492188 202.910156 84.699219 192.050781 L 72.925781 144.105469 C 70.90625 133.273438 67.035156 123.152344 61.316406 113.734375 C 60.578125 112.558594 59.761719 111.441406 58.875 110.375 C 57.984375 109.3125 57.027344 108.3125 56.003906 107.378906 C 54.976562 106.441406 53.894531 105.578125 52.753906 104.789062 C 51.613281 104 50.425781 103.292969 49.1875 102.664062 C 47.949219 102.035156 46.679688 101.492188 45.367188 101.035156 C 44.058594 100.578125 42.722656 100.210938 41.363281 99.933594 C 40.003906 99.65625 38.632812 99.472656 37.25 99.378906 C 35.863281 99.285156 34.480469 99.289062 33.097656 99.382812 C 31.789062 99.667969 30.503906 100.035156 29.246094 100.488281 C 27.988281 100.941406 26.761719 101.476562 25.574219 102.085938 C 24.382812 102.699219 23.238281 103.386719 22.136719 104.152344 C 21.039062 104.914062 19.992188 105.746094 19.003906 106.644531 C 18.011719 107.542969 17.082031 108.503906 16.21875 109.523438 C 15.351562 110.546875 14.558594 111.617188 13.832031 112.742188 C 13.105469 113.867188 12.457031 115.035156 11.886719 116.246094 C 11.3125 117.453125 10.824219 118.695312 10.414062 119.96875 C 7.304688 130.417969 6.105469 141.078125 6.8125 151.953125 C 7.453125 182.730469 6.488281 213.460938 3.910156 244.136719 C 2.082031 263.382812 -0.984375 282.679688 0.683594 301.867188 C 2.726562 326.273438 22.023438 375.078125 46.855469 338.582031 Z M 46.855469 338.582031 " fill-opacity="1" fill-rule="nonzero"/></g></g></g></g></svg>