<svg xmlns="http://www.w3.org/2000/svg" xmlns:xlink="http://www.w3.org/1999/xlink" width="500" zoomAndPan="magnify" viewBox="0 0 375 374.999991" height="500" preserveAspectRatio="xMidYMid meet" version="1.0"><path fill="#26adeb" d="M 41.34375 100.222656 C 42.828125 98.441406 43.867188 97.085938 44.992188 95.832031 C 46.019531 94.597656 47.160156 93.476562 48.410156 92.46875 C 49.664062 91.460938 51 90.585938 52.425781 89.847656 C 53.851562 89.105469 55.335938 88.511719 56.882812 88.066406 C 58.425781 87.621094 60 87.332031 61.597656 87.199219 C 63.148438 87.042969 64.6875 87.101562 66.21875 87.382812 C 67.753906 87.660156 69.214844 88.144531 70.609375 88.839844 C 72.003906 89.53125 73.277344 90.402344 74.421875 91.457031 C 75.570312 92.507812 76.550781 93.699219 77.359375 95.027344 C 78.675781 97.019531 79.882812 99.144531 81.453125 101.265625 C 83.003906 99.671875 84.402344 98.210938 85.824219 96.789062 C 88.550781 93.582031 91.886719 91.25 95.835938 89.789062 C 96.871094 89.425781 97.933594 89.171875 99.023438 89.03125 C 100.113281 88.886719 101.207031 88.859375 102.300781 88.941406 C 103.398438 89.027344 104.472656 89.222656 105.527344 89.527344 C 106.582031 89.835938 107.59375 90.246094 108.5625 90.765625 C 109.941406 91.527344 111.53125 91.953125 112.976562 92.609375 C 116.117188 94.074219 118.648438 96.253906 120.570312 99.144531 C 121.4375 100.4375 122.371094 101.6875 123.558594 103.386719 C 125.679688 101.265625 127.652344 99.503906 129.308594 97.507812 C 130.011719 96.714844 130.792969 96.007812 131.65625 95.390625 C 132.519531 94.769531 133.441406 94.257812 134.417969 93.847656 C 135.398438 93.4375 136.410156 93.144531 137.457031 92.960938 C 138.5 92.78125 139.554688 92.722656 140.613281 92.777344 C 142.660156 92.757812 144.6875 92.964844 146.6875 93.398438 C 148.691406 93.832031 150.617188 94.480469 152.472656 95.347656 C 154.328125 96.214844 156.066406 97.277344 157.683594 98.53125 C 159.300781 99.789062 160.761719 101.207031 162.058594 102.792969 C 162.589844 103.386719 163.140625 103.914062 163.988281 104.785156 C 165.25 103.828125 166.445312 102.796875 167.574219 101.6875 C 170.710938 98.070312 174.441406 95.242188 178.773438 93.203125 C 185.476562 90.210938 195.339844 90.042969 201.238281 98.464844 C 202.40625 100.140625 203.65625 101.75 205.054688 103.660156 C 205.648438 103.003906 206.160156 102.472656 206.605469 101.898438 C 208.511719 99.480469 210.253906 96.914062 212.289062 94.625 C 217.464844 88.769531 225.144531 88.683594 231.378906 92.015625 C 234.058594 93.765625 236.503906 95.796875 238.71875 98.101562 C 239.472656 98.878906 240.179688 99.691406 240.839844 100.542969 C 241.507812 100.042969 242.136719 99.5 242.730469 98.910156 C 243.394531 98.125 244.003906 97.296875 244.554688 96.425781 C 248.519531 90.253906 254.480469 89.277344 261.121094 90.0625 C 262.816406 90.234375 264.535156 90.425781 266.230469 90.65625 C 268 90.914062 269.679688 91.449219 271.265625 92.265625 C 272.855469 93.085938 274.265625 94.140625 275.5 95.429688 L 282.925781 102.875 C 283.5625 102.503906 284.128906 102.042969 284.621094 101.496094 C 286.445312 99.359375 288.5 97.46875 290.785156 95.832031 C 293.070312 94.199219 295.519531 92.859375 298.132812 91.824219 C 299.726562 91.121094 301.394531 90.710938 303.132812 90.59375 C 304.871094 90.476562 306.578125 90.660156 308.253906 91.144531 C 309.722656 91.417969 311.136719 91.859375 312.496094 92.476562 C 313.855469 93.089844 315.125 93.863281 316.296875 94.785156 C 317.46875 95.710938 318.515625 96.761719 319.433594 97.9375 C 320.351562 99.117188 321.113281 100.386719 321.722656 101.75 C 322.464844 103.492188 323.546875 105.101562 324.734375 107.222656 C 327.28125 104.890625 329.570312 102.726562 331.945312 100.648438 C 333.195312 99.496094 334.539062 98.460938 335.976562 97.550781 C 336.945312 96.964844 337.960938 96.476562 339.027344 96.085938 C 340.089844 95.695312 341.179688 95.40625 342.296875 95.222656 C 343.414062 95.039062 344.539062 94.960938 345.671875 94.992188 C 346.804688 95.023438 347.925781 95.164062 349.03125 95.40625 C 350.136719 95.652344 351.210938 96 352.25 96.449219 C 353.292969 96.898438 354.28125 97.441406 355.214844 98.078125 C 356.152344 98.714844 357.019531 99.4375 357.820312 100.238281 C 358.617188 101.042969 359.335938 101.914062 359.96875 102.855469 C 363.425781 108.011719 366.140625 113.535156 368.113281 119.421875 C 369.195312 122.710938 368.453125 124.703125 365.992188 125.636719 C 365.648438 125.722656 365.300781 125.777344 364.945312 125.796875 C 364.59375 125.820312 364.238281 125.8125 363.886719 125.769531 C 363.535156 125.730469 363.191406 125.65625 362.851562 125.554688 C 362.511719 125.449219 362.1875 125.316406 361.871094 125.15625 C 361.558594 124.992188 361.261719 124.800781 360.980469 124.585938 C 360.699219 124.371094 360.441406 124.128906 360.203125 123.867188 C 359.96875 123.601562 359.753906 123.320312 359.570312 123.019531 C 359.382812 122.71875 359.226562 122.402344 359.097656 122.074219 C 357.527344 118.128906 356.105469 114.140625 354.175781 110.386719 C 352.96875 108.167969 351.378906 106.273438 349.402344 104.699219 C 348.8125 104.183594 348.152344 103.777344 347.425781 103.480469 C 346.699219 103.183594 345.945312 103.011719 345.160156 102.96875 C 344.375 102.921875 343.605469 103.007812 342.851562 103.21875 C 342.09375 103.433594 341.394531 103.765625 340.75 104.210938 C 338.546875 105.578125 336.546875 107.191406 334.753906 109.058594 C 332.957031 110.925781 331.421875 112.988281 330.144531 115.242188 C 329.300781 117.019531 328.785156 118.886719 328.59375 120.84375 C 327.894531 125.085938 324.351562 126.886719 319.683594 124.765625 C 319.359375 124.585938 319.0625 124.359375 318.800781 124.09375 C 318.539062 123.824219 318.320312 123.527344 318.148438 123.195312 C 317.976562 122.863281 317.851562 122.511719 317.78125 122.144531 C 317.710938 121.777344 317.695312 121.40625 317.734375 121.035156 C 317.652344 119.085938 317.382812 117.164062 316.917969 115.269531 C 316.453125 113.378906 315.808594 111.546875 314.980469 109.785156 C 314.152344 108.019531 313.15625 106.355469 311.996094 104.789062 C 310.835938 103.222656 309.53125 101.785156 308.082031 100.480469 C 307.628906 99.996094 307.109375 99.597656 306.523438 99.289062 C 305.9375 98.976562 305.316406 98.773438 304.660156 98.671875 C 304.003906 98.566406 303.351562 98.574219 302.695312 98.691406 C 302.042969 98.8125 301.429688 99.03125 300.847656 99.355469 C 298.839844 100.214844 296.980469 101.332031 295.273438 102.699219 C 293.566406 104.066406 292.074219 105.640625 290.792969 107.414062 C 288.417969 110.6875 286.535156 114.222656 285.152344 118.019531 C 284.242188 120.96875 282.820312 122.050781 280.632812 121.859375 C 279.96875 121.832031 279.332031 121.695312 278.714844 121.445312 C 278.097656 121.199219 277.539062 120.855469 277.039062 120.417969 C 276.539062 119.980469 276.128906 119.472656 275.800781 118.894531 C 275.476562 118.316406 275.253906 117.699219 275.140625 117.046875 C 274.78125 114.925781 274.269531 112.804688 274.101562 110.683594 C 273.867188 108.914062 273.355469 107.234375 272.566406 105.636719 C 271.78125 104.039062 270.757812 102.609375 269.496094 101.347656 C 268.972656 100.703125 268.378906 100.128906 267.71875 99.628906 C 267.054688 99.125 266.34375 98.707031 265.582031 98.375 C 264.820312 98.042969 264.027344 97.804688 263.210938 97.664062 C 262.390625 97.519531 261.566406 97.476562 260.738281 97.53125 C 260.398438 97.550781 260.058594 97.550781 259.71875 97.53125 C 254.332031 96.871094 251.425781 99.652344 249.769531 104.425781 C 248.464844 107.273438 247.816406 110.265625 247.820312 113.398438 C 247.820312 113.949219 247.691406 114.542969 247.691406 115.09375 C 247.691406 119.335938 243.683594 122.304688 238.316406 119.65625 C 237.363281 118.996094 236.773438 118.097656 236.554688 116.960938 C 235.855469 113.574219 234.644531 110.378906 232.925781 107.378906 C 231.207031 104.378906 229.066406 101.714844 226.5 99.398438 C 223.660156 96.746094 221.644531 97.042969 219.035156 100.054688 C 217.210938 102.207031 215.753906 104.582031 214.667969 107.1875 C 213.582031 109.789062 212.917969 112.496094 212.671875 115.304688 C 212.332031 118.316406 211.757812 118.996094 208.875 119.78125 C 207.558594 120.140625 206.222656 120.503906 204.863281 120.738281 C 204.578125 120.839844 204.28125 120.910156 203.976562 120.949219 C 203.675781 120.992188 203.371094 120.996094 203.066406 120.972656 C 202.761719 120.945312 202.464844 120.886719 202.171875 120.796875 C 201.878906 120.703125 201.601562 120.585938 201.332031 120.433594 C 201.066406 120.28125 200.820312 120.105469 200.59375 119.898438 C 200.367188 119.695312 200.164062 119.46875 199.984375 119.21875 C 199.804688 118.972656 199.65625 118.707031 199.535156 118.425781 C 199.414062 118.144531 199.324219 117.855469 199.265625 117.554688 C 198.550781 115.464844 197.949219 113.34375 197.460938 111.191406 C 196.613281 107.9375 195.15625 104.980469 193.09375 102.324219 C 192.8125 101.890625 192.496094 101.484375 192.140625 101.113281 C 191.78125 100.738281 191.390625 100.402344 190.972656 100.101562 C 190.550781 99.804688 190.101562 99.550781 189.632812 99.335938 C 189.160156 99.125 188.671875 98.957031 188.171875 98.839844 C 187.667969 98.722656 187.160156 98.652344 186.640625 98.632812 C 186.125 98.609375 185.613281 98.640625 185.101562 98.71875 C 184.589844 98.796875 184.09375 98.925781 183.605469 99.097656 C 183.121094 99.273438 182.65625 99.492188 182.210938 99.757812 C 180.007812 101.171875 177.9375 102.753906 175.996094 104.507812 C 175.296875 105.082031 174.765625 105.886719 174.085938 106.480469 C 170.792969 109.578125 168.242188 113.199219 166.429688 117.34375 C 164.796875 120.820312 162.421875 121.585938 159.195312 119.738281 C 158.335938 119.21875 157.679688 118.511719 157.222656 117.617188 C 156.699219 116.578125 156.410156 115.472656 156.351562 114.308594 C 156.203125 108.921875 152.8125 105.527344 149.054688 102.429688 C 148.546875 102.070312 148.007812 101.757812 147.441406 101.488281 C 146.878906 101.21875 146.296875 101 145.695312 100.828125 C 145.09375 100.660156 144.480469 100.539062 143.859375 100.472656 C 143.238281 100.40625 142.617188 100.390625 141.992188 100.429688 C 141.367188 100.46875 140.753906 100.558594 140.144531 100.699219 C 139.535156 100.84375 138.941406 101.035156 138.367188 101.277344 C 137.789062 101.519531 137.238281 101.808594 136.710938 102.144531 C 136.183594 102.480469 135.691406 102.859375 135.226562 103.277344 C 131.34375 107.222656 127.929688 111.402344 127.164062 117.238281 C 127.125 117.761719 126.988281 118.257812 126.761719 118.730469 C 126.535156 119.207031 126.230469 119.625 125.847656 119.984375 C 125.464844 120.34375 125.03125 120.625 124.546875 120.824219 C 124.058594 121.023438 123.554688 121.128906 123.03125 121.140625 C 122.484375 121.175781 121.945312 121.128906 121.417969 121.003906 C 120.886719 120.875 120.386719 120.671875 119.917969 120.394531 C 119.445312 120.117188 119.027344 119.777344 118.664062 119.371094 C 118.296875 118.964844 118 118.515625 117.769531 118.019531 C 117.40625 116.941406 117.101562 115.84375 116.855469 114.734375 C 116.136719 112.335938 115.542969 109.875 114.734375 107.542969 C 114.21875 106.261719 113.558594 105.058594 112.746094 103.9375 C 111.9375 102.816406 111.003906 101.808594 109.949219 100.917969 C 108.894531 100.023438 107.746094 99.273438 106.507812 98.660156 C 105.269531 98.046875 103.972656 97.59375 102.625 97.296875 C 101.464844 96.921875 100.285156 96.84375 99.085938 97.0625 C 97.886719 97.28125 96.808594 97.769531 95.855469 98.527344 C 94.492188 99.472656 93.246094 100.5625 92.128906 101.789062 C 91.007812 103.019531 90.039062 104.355469 89.222656 105.804688 C 88.40625 107.25 87.757812 108.769531 87.285156 110.363281 C 86.8125 111.957031 86.523438 113.582031 86.417969 115.242188 C 86.300781 116.390625 86.046875 117.507812 85.652344 118.59375 C 85.460938 119.164062 85.179688 119.683594 84.8125 120.160156 C 84.445312 120.632812 84.011719 121.035156 83.511719 121.367188 C 83.007812 121.695312 82.46875 121.9375 81.886719 122.085938 C 81.304688 122.238281 80.714844 122.289062 80.117188 122.242188 C 79.539062 122.207031 78.988281 122.074219 78.464844 121.835938 C 77.9375 121.597656 77.472656 121.269531 77.066406 120.859375 C 76.660156 120.449219 76.339844 119.976562 76.109375 119.449219 C 75.878906 118.917969 75.75 118.363281 75.726562 117.789062 C 74.878906 111.828125 72.945312 106.242188 69.9375 101.03125 C 65.058594 92.226562 58.609375 94.433594 54.34375 98.910156 C 50.992188 102.410156 47.300781 105.886719 45.988281 110.894531 C 45.691406 112.082031 45.351562 113.292969 45.074219 114.480469 C 44.839844 115.75 44.523438 117.003906 44.121094 118.234375 C 43.960938 118.761719 43.714844 119.242188 43.378906 119.679688 C 43.042969 120.117188 42.640625 120.476562 42.171875 120.765625 C 41.703125 121.054688 41.195312 121.246094 40.65625 121.347656 C 40.113281 121.449219 39.570312 121.449219 39.03125 121.351562 C 35.976562 120.820312 34.679688 119.589844 34.511719 116.707031 C 34.5 111.238281 33.289062 106.046875 30.882812 101.136719 C 30.199219 99.820312 29.382812 98.597656 28.425781 97.46875 C 24.183594 92.84375 18.859375 93.117188 14.847656 97.890625 C 11.453125 101.898438 11.242188 106.609375 11.453125 111.488281 C 11.660156 113.304688 11.757812 115.128906 11.75 116.960938 C 11.519531 120.441406 6.597656 123.324219 3.5625 121.605469 C 2.953125 121.230469 2.4375 120.75 2.019531 120.164062 C 1.605469 119.578125 1.320312 118.933594 1.167969 118.234375 C -0.0195312 107.222656 1.824219 97.019531 11.285156 89.957031 C 11.929688 89.429688 12.609375 88.949219 13.324219 88.523438 C 14.042969 88.09375 14.785156 87.71875 15.554688 87.398438 C 16.324219 87.078125 17.113281 86.8125 17.921875 86.609375 C 18.730469 86.402344 19.550781 86.253906 20.378906 86.167969 C 21.207031 86.082031 22.039062 86.058594 22.875 86.09375 C 23.707031 86.128906 24.53125 86.222656 25.351562 86.378906 C 26.171875 86.535156 26.976562 86.75 27.765625 87.019531 C 28.550781 87.292969 29.316406 87.621094 30.058594 88.007812 C 32.898438 89.386719 35.976562 90.617188 37.609375 93.648438 C 38.179688 94.730469 38.5 95.960938 39.09375 97.019531 C 39.789062 98.125 40.539062 99.195312 41.34375 100.222656 Z M 41.34375 100.222656 " fill-opacity="1" fill-rule="nonzero"/><path fill="#26adeb" d="M 262.519531 156.519531 C 265.679688 152.765625 268.160156 149.203125 272.617188 148.183594 C 277.070312 147.167969 281.101562 146.382812 285.34375 148.183594 C 289.367188 149.96875 292.742188 152.59375 295.460938 156.054688 C 296.414062 155.121094 297.179688 154.507812 297.816406 153.761719 C 302.523438 148.269531 308.421875 146.996094 315.210938 148.671875 C 317.519531 149.53125 319.414062 150.945312 320.894531 152.914062 C 321.679688 153.679688 322.335938 154.570312 323.269531 155.652344 C 325.390625 153.53125 327.386719 151.535156 329.210938 149.519531 C 333.960938 144.324219 343.0625 143.6875 348.300781 146.339844 C 352.613281 148.15625 356.210938 150.90625 359.097656 154.589844 C 361.367188 157.941406 364.039062 161.167969 365.035156 165.304688 C 365.546875 167.425781 366.4375 169.398438 366.988281 171.476562 C 367.214844 172.375 367.214844 173.269531 366.988281 174.167969 C 366.894531 174.875 366.625 175.503906 366.179688 176.058594 C 365.734375 176.613281 365.175781 177.011719 364.507812 177.253906 C 363.839844 177.496094 363.15625 177.550781 362.457031 177.410156 C 361.761719 177.273438 361.148438 176.960938 360.625 176.480469 C 360.070312 176.070312 359.574219 175.597656 359.136719 175.0625 C 358.695312 174.53125 358.328125 173.953125 358.03125 173.332031 C 357.734375 172.707031 357.515625 172.058594 357.375 171.382812 C 357.238281 170.707031 357.183594 170.023438 357.210938 169.332031 C 357.105469 168.480469 356.933594 167.640625 356.695312 166.816406 C 356.457031 165.992188 356.152344 165.191406 355.789062 164.414062 C 355.421875 163.636719 355 162.890625 354.515625 162.183594 C 354.03125 161.472656 353.496094 160.804688 352.90625 160.179688 C 352.316406 159.554688 351.679688 158.980469 351 158.457031 C 350.320312 157.933594 349.601562 157.464844 348.847656 157.058594 C 348.089844 156.648438 347.308594 156.300781 346.5 156.015625 C 345.6875 155.726562 344.859375 155.507812 344.015625 155.355469 C 343.003906 155.113281 341.984375 155.039062 340.949219 155.128906 C 339.914062 155.21875 338.917969 155.464844 337.964844 155.875 C 337.007812 156.28125 336.140625 156.832031 335.363281 157.519531 C 334.585938 158.207031 333.933594 158.996094 333.410156 159.894531 C 332.09375 162.015625 330.503906 164.007812 329.273438 166.257812 C 328.722656 167.382812 328.410156 168.570312 328.339844 169.820312 C 328.023438 173.234375 326.917969 175.230469 324.945312 175.570312 C 324.296875 175.585938 323.664062 175.5 323.042969 175.3125 C 322.421875 175.125 321.847656 174.847656 321.316406 174.476562 C 320.785156 174.109375 320.320312 173.664062 319.929688 173.148438 C 319.539062 172.632812 319.238281 172.066406 319.027344 171.453125 C 318.421875 169.617188 317.964844 167.742188 317.648438 165.832031 C 317.371094 164.15625 316.875 162.542969 316.164062 160.996094 C 315.945312 160.574219 315.679688 160.183594 315.367188 159.824219 C 315.054688 159.460938 314.703125 159.144531 314.3125 158.871094 C 313.925781 158.597656 313.507812 158.371094 313.0625 158.195312 C 312.621094 158.023438 312.164062 157.902344 311.691406 157.835938 C 311.21875 157.773438 310.746094 157.765625 310.273438 157.816406 C 309.796875 157.863281 309.335938 157.96875 308.886719 158.128906 C 308.4375 158.289062 308.015625 158.5 307.617188 158.765625 C 307.21875 159.027344 306.859375 159.332031 306.535156 159.679688 C 304.867188 161.125 303.488281 162.800781 302.398438 164.714844 C 301.304688 166.628906 300.5625 168.671875 300.171875 170.839844 C 299.949219 172.300781 299.550781 173.714844 298.984375 175.082031 C 298.921875 175.289062 298.84375 175.488281 298.738281 175.679688 C 298.636719 175.867188 298.515625 176.046875 298.375 176.207031 C 298.234375 176.371094 298.074219 176.519531 297.902344 176.648438 C 297.730469 176.777344 297.546875 176.886719 297.347656 176.976562 C 297.152344 177.066406 296.949219 177.136719 296.738281 177.179688 C 296.527344 177.226562 296.3125 177.25 296.097656 177.25 C 295.878906 177.246094 295.667969 177.222656 295.457031 177.175781 C 295.246094 177.128906 295.042969 177.058594 294.847656 176.96875 C 294.40625 176.855469 293.980469 176.699219 293.566406 176.507812 C 293.15625 176.3125 292.765625 176.085938 292.394531 175.820312 C 292.023438 175.554688 291.679688 175.257812 291.363281 174.933594 C 291.046875 174.605469 290.761719 174.25 290.507812 173.871094 C 290.257812 173.492188 290.042969 173.09375 289.863281 172.675781 C 289.683594 172.257812 289.542969 171.828125 289.441406 171.382812 C 289.34375 170.9375 289.28125 170.488281 289.261719 170.035156 C 289.246094 169.578125 289.265625 169.125 289.332031 168.675781 C 289.515625 166.617188 289.347656 164.585938 288.820312 162.585938 C 288.699219 162.246094 288.550781 161.910156 288.386719 161.585938 C 288.21875 161.261719 288.035156 160.949219 287.828125 160.648438 C 287.625 160.347656 287.402344 160.0625 287.160156 159.789062 C 286.917969 159.515625 286.664062 159.257812 286.390625 159.015625 C 286.117188 158.777344 285.832031 158.550781 285.53125 158.347656 C 285.226562 158.140625 284.917969 157.957031 284.59375 157.789062 C 284.269531 157.621094 283.933594 157.476562 283.59375 157.351562 C 283.25 157.226562 282.902344 157.125 282.546875 157.042969 C 282.191406 156.960938 281.832031 156.902344 281.472656 156.867188 C 281.109375 156.828125 280.746094 156.816406 280.382812 156.824219 C 280.015625 156.832031 279.65625 156.863281 279.292969 156.917969 C 278.933594 156.972656 278.578125 157.046875 278.226562 157.144531 C 277.878906 157.242188 277.535156 157.363281 277.199219 157.503906 C 276.863281 157.644531 276.535156 157.804688 276.21875 157.988281 C 275.90625 158.167969 275.601562 158.371094 275.3125 158.589844 C 275.019531 158.808594 274.742188 159.046875 274.484375 159.300781 C 272.492188 161.042969 270.8125 163.050781 269.441406 165.316406 C 268.074219 167.582031 267.082031 170.003906 266.464844 172.578125 C 266.417969 172.941406 266.328125 173.289062 266.195312 173.628906 C 266.058594 173.96875 265.882812 174.285156 265.667969 174.578125 C 265.449219 174.871094 265.199219 175.128906 264.917969 175.359375 C 264.632812 175.589844 264.324219 175.777344 263.992188 175.925781 C 263.660156 176.074219 263.3125 176.179688 262.953125 176.238281 C 262.59375 176.300781 262.234375 176.3125 261.871094 176.28125 C 261.507812 176.246094 261.152344 176.167969 260.8125 176.042969 C 260.46875 175.921875 260.148438 175.753906 259.847656 175.546875 C 259.132812 175.238281 258.484375 174.828125 257.898438 174.3125 C 257.3125 173.800781 256.820312 173.210938 256.421875 172.542969 C 256.023438 171.875 255.734375 171.160156 255.558594 170.402344 C 255.382812 169.644531 255.328125 168.878906 255.390625 168.101562 C 255.566406 165.421875 255.089844 162.863281 253.972656 160.425781 C 253.570312 159.449219 252.957031 158.636719 252.128906 157.980469 C 251.300781 157.328125 250.367188 156.917969 249.324219 156.753906 L 248.648438 156.753906 C 242.113281 155.546875 239.101562 156.753906 235.582031 162.269531 C 234.460938 163.878906 233.550781 165.597656 232.84375 167.425781 C 232.359375 169.171875 232.132812 170.953125 232.164062 172.769531 C 232.164062 177.011719 230.042969 178.371094 226.203125 177.011719 C 225.375 176.75 224.613281 176.363281 223.914062 175.851562 C 223.214844 175.335938 222.617188 174.726562 222.121094 174.011719 C 221.628906 173.300781 221.261719 172.527344 221.023438 171.691406 C 220.785156 170.859375 220.6875 170.007812 220.730469 169.140625 C 220.710938 167.910156 220.5625 166.691406 220.289062 165.488281 C 220.015625 164.285156 219.621094 163.125 219.105469 162.003906 C 218.589844 160.882812 217.96875 159.824219 217.234375 158.835938 C 216.5 157.84375 215.671875 156.9375 214.75 156.117188 C 212.351562 153.996094 209.59375 154.738281 206.964844 155.652344 C 205.34375 156.214844 203.789062 156.921875 202.296875 157.773438 C 201.144531 158.308594 200.164062 159.066406 199.351562 160.042969 C 196.527344 164.285156 193.347656 168.25 192.859375 173.449219 C 192.542969 176.925781 191.351562 178.347656 186.878906 176.820312 C 183.269531 175.503906 181.148438 174.53125 181.59375 168.929688 C 181.710938 166.289062 181.417969 163.695312 180.726562 161.144531 C 180.59375 160.429688 180.347656 159.753906 179.996094 159.117188 C 179.644531 158.480469 179.199219 157.914062 178.664062 157.421875 C 178.128906 156.929688 177.53125 156.53125 176.867188 156.234375 C 176.203125 155.933594 175.511719 155.746094 174.785156 155.671875 C 173.855469 155.484375 172.917969 155.421875 171.96875 155.484375 C 171.019531 155.546875 170.097656 155.734375 169.199219 156.046875 C 168.304688 156.359375 167.460938 156.785156 166.679688 157.320312 C 165.894531 157.859375 165.199219 158.488281 164.582031 159.214844 C 163.121094 160.953125 161.378906 162.460938 159.8125 164.09375 C 159.300781 164.566406 158.898438 165.117188 158.601562 165.75 C 157.5625 168.632812 156.480469 171.519531 155.652344 174.464844 C 154.699219 177.777344 153.53125 178.433594 150.179688 177.519531 C 146.320312 176.4375 143.988281 174.277344 143.816406 170.054688 C 143.6875 168.453125 143.476562 166.863281 143.179688 165.28125 C 142.3125 159.109375 138.109375 158.089844 133.402344 159.53125 C 132.210938 159.960938 131.074219 160.503906 129.992188 161.160156 C 128.910156 161.816406 127.902344 162.570312 126.96875 163.425781 C 126.039062 164.28125 125.199219 165.222656 124.453125 166.246094 C 123.707031 167.265625 123.070312 168.351562 122.542969 169.503906 C 122.164062 170.601562 122.09375 171.71875 122.328125 172.855469 C 122.710938 176.3125 120.867188 179.21875 116.476562 177.667969 C 115.730469 177.496094 115.03125 177.210938 114.375 176.816406 C 113.714844 176.425781 113.136719 175.941406 112.628906 175.367188 C 112.125 174.792969 111.71875 174.15625 111.410156 173.457031 C 111.105469 172.753906 110.910156 172.023438 110.832031 171.261719 C 110.476562 168.929688 109.753906 166.710938 108.664062 164.617188 C 107.574219 162.519531 106.175781 160.65625 104.46875 159.023438 C 104.183594 158.699219 103.859375 158.421875 103.492188 158.195312 C 103.125 157.96875 102.730469 157.804688 102.3125 157.695312 C 101.890625 157.589844 101.464844 157.550781 101.035156 157.574219 C 100.605469 157.597656 100.1875 157.683594 99.78125 157.835938 C 95.664062 159.492188 91.761719 161.546875 91.085938 166.574219 C 90.625 169.847656 90.378906 173.136719 90.339844 176.4375 C 90.339844 180.679688 88.496094 182.144531 84.59375 180.851562 C 79.714844 179.21875 78.570312 177.710938 78.910156 172.535156 C 79.050781 169.566406 79.484375 166.640625 80.203125 163.753906 C 80.578125 162.1875 81.15625 160.695312 81.929688 159.28125 C 82.707031 157.867188 83.652344 156.582031 84.773438 155.417969 C 85.890625 154.257812 87.140625 153.261719 88.523438 152.433594 C 89.910156 151.605469 91.378906 150.976562 92.929688 150.539062 C 98.847656 148.820312 104.957031 149.160156 109.898438 154.019531 C 111.679688 155.757812 113.71875 157.242188 115.753906 158.960938 C 118.042969 157.113281 120.207031 155.460938 122.117188 153.65625 C 126.359375 149.796875 131.492188 149.414062 136.964844 150.347656 C 139.367188 150.667969 141.636719 151.402344 143.773438 152.554688 C 145.90625 153.707031 147.765625 155.199219 149.351562 157.03125 C 149.542969 157.261719 149.949219 157.328125 150.222656 157.453125 C 152.449219 154.953125 154.464844 152.382812 156.820312 150.03125 C 157.570312 149.234375 158.410156 148.542969 159.332031 147.949219 C 160.253906 147.359375 161.230469 146.890625 162.269531 146.539062 C 163.308594 146.191406 164.371094 145.972656 165.464844 145.882812 C 166.554688 145.796875 167.640625 145.84375 168.71875 146.019531 C 172.226562 146.480469 175.683594 147.1875 179.09375 148.140625 C 180.328125 148.472656 181.46875 149.003906 182.515625 149.730469 C 183.566406 150.460938 184.460938 151.34375 185.203125 152.382812 C 186.195312 153.5625 187.285156 154.644531 188.46875 155.628906 C 190.589844 153.761719 192.710938 151.980469 194.832031 150.304688 C 201.640625 144.917969 212.140625 143.113281 219.628906 150.136719 C 220.796875 151.238281 222.152344 152.128906 223.296875 153.234375 C 224.445312 154.335938 225.417969 155.628906 226.757812 157.199219 C 227.929688 156.082031 228.992188 154.867188 229.9375 153.550781 C 233.671875 146.953125 239.632812 146.167969 246.269531 147.039062 C 247.644531 147.152344 248.996094 147.402344 250.320312 147.78125 C 251.644531 148.164062 252.921875 148.671875 254.144531 149.304688 C 255.371094 149.9375 256.523438 150.683594 257.597656 151.546875 C 258.675781 152.40625 259.660156 153.367188 260.546875 154.421875 C 261.011719 155.035156 261.605469 155.566406 262.519531 156.519531 Z M 262.519531 156.519531 " fill-opacity="1" fill-rule="nonzero"/><path fill="#26adeb" d="M 276.433594 274.035156 C 276.878906 273.609375 277.28125 273.273438 277.621094 272.890625 C 279.136719 271.300781 280.835938 269.941406 282.71875 268.808594 C 284.601562 267.679688 286.601562 266.820312 288.714844 266.230469 C 289.574219 265.980469 290.453125 265.882812 291.347656 265.933594 C 293.933594 266.035156 296.40625 266.617188 298.765625 267.679688 C 301.125 268.746094 303.199219 270.210938 304.984375 272.082031 C 305.429688 272.550781 305.917969 273.015625 306.511719 273.589844 L 309.863281 270.597656 C 311.066406 269.371094 312.441406 268.390625 314 267.660156 C 315.554688 266.929688 317.1875 266.496094 318.902344 266.355469 C 321.03125 266.246094 323.105469 266.523438 325.132812 267.183594 C 327.160156 267.847656 329 268.851562 330.652344 270.195312 C 331.414062 270.789062 332.136719 271.40625 332.921875 272.082031 C 333.453125 271.765625 333.898438 271.53125 334.300781 271.234375 C 335.964844 270.035156 337.785156 269.160156 339.765625 268.609375 C 341.742188 268.058594 343.75 267.867188 345.796875 268.03125 C 347.148438 268.117188 348.425781 268.464844 349.628906 269.074219 C 350.835938 269.6875 351.871094 270.511719 352.734375 271.554688 C 353.242188 272.105469 353.710938 272.679688 354.21875 273.207031 C 355.640625 274.652344 356.339844 274.671875 357.378906 273.039062 C 358.570312 271.390625 360.085938 270.125 361.917969 269.242188 C 362.550781 268.871094 363.207031 268.546875 363.890625 268.277344 C 364.570312 268.003906 365.269531 267.789062 365.984375 267.621094 C 366.699219 267.457031 367.421875 267.347656 368.152344 267.292969 C 368.886719 267.238281 369.617188 267.238281 370.347656 267.292969 C 371.078125 267.351562 371.804688 267.460938 372.515625 267.628906 C 373.230469 267.796875 373.929688 268.015625 374.609375 268.289062 C 375.292969 268.5625 375.949219 268.886719 376.578125 269.257812 C 377.210938 269.632812 377.8125 270.050781 378.378906 270.515625 C 380.421875 272.136719 382.0625 274.09375 383.300781 276.390625 C 385.042969 279.84375 386.1875 283.484375 386.738281 287.3125 C 386.859375 287.863281 386.863281 288.410156 386.753906 288.960938 C 386.644531 289.511719 386.425781 290.015625 386.101562 290.476562 C 385.867188 290.808594 385.601562 291.113281 385.308594 291.390625 C 385.011719 291.667969 384.691406 291.914062 384.347656 292.128906 C 384 292.34375 383.636719 292.519531 383.257812 292.660156 C 382.875 292.800781 382.484375 292.898438 382.082031 292.960938 C 381.679688 293.019531 381.277344 293.039062 380.871094 293.019531 C 380.464844 292.996094 380.066406 292.9375 379.671875 292.832031 C 379.28125 292.730469 378.902344 292.589844 378.539062 292.410156 C 378.171875 292.230469 377.832031 292.015625 377.507812 291.769531 C 377.023438 291.300781 376.660156 290.75 376.417969 290.121094 C 376.175781 289.488281 376.082031 288.835938 376.128906 288.164062 C 376.230469 284.835938 375.523438 281.6875 374.007812 278.722656 C 372.058594 274.839844 368.601562 274.480469 365.25 277.238281 C 362.640625 279.359375 361.007812 283.792969 360.304688 287.546875 C 360.21875 287.980469 360.085938 288.398438 359.90625 288.800781 C 359.722656 289.203125 359.5 289.582031 359.230469 289.933594 C 358.964844 290.285156 358.660156 290.601562 358.320312 290.882812 C 357.980469 291.164062 357.609375 291.402344 357.214844 291.601562 C 356.820312 291.796875 356.410156 291.949219 355.980469 292.050781 C 355.550781 292.15625 355.113281 292.207031 354.671875 292.210938 C 354.230469 292.214844 353.792969 292.167969 353.363281 292.074219 C 352.929688 291.976562 352.515625 291.832031 352.117188 291.640625 C 351.507812 291.320312 351.015625 290.867188 350.640625 290.292969 C 350.261719 289.714844 350.046875 289.082031 349.996094 288.394531 C 349.765625 286.550781 349.488281 284.726562 349.296875 282.878906 C 348.980469 279.742188 346.773438 277.960938 344.523438 276.242188 C 344.332031 276.082031 344.121094 275.964844 343.882812 275.886719 C 343.648438 275.8125 343.40625 275.777344 343.160156 275.792969 C 342.910156 275.808594 342.675781 275.863281 342.449219 275.96875 C 342.222656 276.070312 342.023438 276.210938 341.851562 276.390625 C 340.742188 277.363281 339.835938 278.503906 339.136719 279.804688 C 338.257812 282.003906 337.589844 284.265625 337.144531 286.59375 C 336.253906 291.089844 332.902344 292.320312 328.933594 290.835938 C 328.386719 290.652344 327.9375 290.328125 327.589844 289.867188 C 327.238281 289.40625 327.050781 288.886719 327.023438 288.3125 C 327.023438 287.207031 326.917969 286.191406 326.917969 285 C 326.910156 281.8125 326.0625 278.863281 324.375 276.15625 C 324.199219 275.871094 323.992188 275.609375 323.761719 275.371094 C 323.527344 275.132812 323.269531 274.921875 322.988281 274.742188 C 322.710938 274.558594 322.414062 274.410156 322.097656 274.296875 C 321.785156 274.179688 321.464844 274.101562 321.132812 274.058594 C 320.800781 274.011719 320.46875 274.007812 320.136719 274.035156 C 319.804688 274.066406 319.480469 274.132812 319.160156 274.234375 C 318.84375 274.339844 318.542969 274.476562 318.253906 274.644531 C 317.964844 274.816406 317.699219 275.015625 317.457031 275.246094 C 315.394531 276.828125 313.980469 278.867188 313.214844 281.351562 C 312.972656 282.050781 312.664062 282.714844 312.28125 283.347656 C 311.332031 284.921875 310.949219 286.628906 311.136719 288.460938 C 311.1875 288.8125 311.175781 289.164062 311.105469 289.515625 C 311.03125 289.863281 310.90625 290.195312 310.722656 290.5 C 310.539062 290.808594 310.308594 291.074219 310.035156 291.300781 C 309.761719 291.53125 309.457031 291.707031 309.121094 291.832031 C 308.277344 292.261719 307.382812 292.5 306.441406 292.558594 C 305.496094 292.613281 304.578125 292.476562 303.691406 292.148438 C 303.238281 292.007812 302.820312 291.796875 302.433594 291.523438 C 302.050781 291.246094 301.714844 290.917969 301.433594 290.539062 C 301.152344 290.15625 300.9375 289.742188 300.785156 289.292969 C 300.632812 288.84375 300.558594 288.382812 300.550781 287.90625 C 300.515625 286.121094 300.277344 284.359375 299.832031 282.625 C 299.28125 280.703125 298.476562 278.890625 297.414062 277.195312 C 297.191406 276.796875 296.925781 276.429688 296.621094 276.089844 C 296.316406 275.753906 295.976562 275.453125 295.605469 275.1875 C 295.230469 274.925781 294.832031 274.707031 294.414062 274.535156 C 293.992188 274.359375 293.554688 274.234375 293.105469 274.160156 C 292.65625 274.082031 292.203125 274.058594 291.75 274.082031 C 291.292969 274.105469 290.847656 274.183594 290.40625 274.308594 C 289.96875 274.433594 289.550781 274.605469 289.148438 274.824219 C 288.75 275.042969 288.378906 275.304688 288.039062 275.605469 C 285.578125 277.527344 283.542969 279.828125 281.929688 282.5 C 281.222656 283.828125 280.917969 285.242188 281.015625 286.742188 C 281.085938 287.640625 280.925781 288.5 280.535156 289.3125 C 280.140625 290.125 279.570312 290.785156 278.824219 291.292969 C 278.074219 291.800781 277.25 292.085938 276.351562 292.148438 C 275.449219 292.207031 274.59375 292.039062 273.78125 291.640625 C 273.324219 291.539062 272.894531 291.363281 272.492188 291.117188 C 272.09375 290.871094 271.742188 290.566406 271.441406 290.203125 C 271.144531 289.839844 270.910156 289.4375 270.746094 289 C 270.578125 288.558594 270.488281 288.101562 270.472656 287.632812 C 270.324219 284.785156 269.574219 282.105469 268.226562 279.59375 C 266.972656 277.152344 266.105469 276.707031 263.410156 277.726562 C 261.902344 278.175781 260.558594 278.921875 259.382812 279.964844 C 258.203125 281.003906 257.296875 282.246094 256.664062 283.6875 C 256.027344 285.136719 255.773438 286.648438 255.902344 288.226562 C 256.007812 289.710938 256.132812 291.195312 256.367188 292.636719 C 256.4375 292.929688 256.453125 293.21875 256.417969 293.515625 C 256.386719 293.8125 256.304688 294.09375 256.171875 294.359375 C 256.039062 294.628906 255.867188 294.863281 255.652344 295.070312 C 255.4375 295.277344 255.195312 295.441406 254.925781 295.566406 C 254.398438 295.917969 253.824219 296.171875 253.207031 296.328125 C 252.59375 296.484375 251.96875 296.535156 251.335938 296.476562 C 250.699219 296.417969 250.097656 296.257812 249.519531 295.992188 C 248.941406 295.726562 248.425781 295.371094 247.96875 294.929688 C 247.691406 294.675781 247.4375 294.398438 247.160156 294.164062 C 245.167969 292.574219 245.210938 292.488281 246.566406 290.261719 C 246.886719 289.515625 247 288.738281 246.90625 287.929688 C 246.863281 286.867188 246.929688 285.816406 247.105469 284.769531 C 247.285156 283.722656 247.570312 282.707031 247.960938 281.71875 C 248.351562 280.734375 248.839844 279.796875 249.425781 278.914062 C 250.015625 278.03125 250.6875 277.21875 251.445312 276.476562 C 253.914062 274.308594 256.664062 272.597656 259.699219 271.339844 C 262.140625 270.128906 264.722656 269.621094 267.441406 269.8125 C 270.054688 270.21875 272.410156 271.230469 274.503906 272.847656 Z M 276.433594 274.035156 " fill-opacity="1" fill-rule="nonzero"/><path fill="#26adeb" d="M 194.664062 216.953125 C 195.09375 216.632812 195.492188 216.273438 195.851562 215.871094 C 198.628906 212.03125 202.722656 210.546875 207.113281 209.507812 C 210.320312 208.535156 213.554688 208.453125 216.808594 209.253906 C 218.324219 209.632812 219.691406 210.3125 220.90625 211.296875 C 222.125 212.277344 223.078125 213.472656 223.765625 214.875 C 224.316406 215.957031 224.804688 216.996094 225.355469 218.207031 C 225.695312 218.207031 226.054688 218.207031 226.183594 217.972656 C 228.3125 215.242188 230.976562 213.222656 234.179688 211.90625 C 237.214844 210.484375 239.992188 208.492188 243.535156 208.171875 C 244.394531 208.046875 245.261719 208.03125 246.125 208.121094 C 246.992188 208.210938 247.835938 208.410156 248.652344 208.710938 C 249.46875 209.011719 250.234375 209.410156 250.953125 209.90625 C 251.671875 210.398438 252.316406 210.972656 252.890625 211.628906 C 254.054688 212.945312 255.199219 214.300781 256.515625 215.871094 C 257.140625 215.445312 257.71875 214.960938 258.253906 214.429688 C 259.277344 213.195312 260.4375 212.105469 261.738281 211.167969 C 263.035156 210.230469 264.433594 209.472656 265.929688 208.890625 C 267.425781 208.3125 268.96875 207.929688 270.5625 207.746094 C 272.152344 207.566406 273.742188 207.585938 275.332031 207.8125 C 277.128906 207.996094 278.816406 208.535156 280.390625 209.425781 C 281.96875 210.3125 283.300781 211.480469 284.390625 212.921875 C 285.703125 214.472656 286.976562 216.085938 288.632812 217.992188 C 289.480469 217.015625 290.179688 216.316406 290.753906 215.554688 C 291.683594 214.375 292.554688 213.152344 293.363281 211.882812 C 296.375 206.878906 307.847656 205.179688 312.199219 209.316406 C 313.554688 210.453125 314.96875 211.515625 316.441406 212.5 C 316.644531 212.699219 316.878906 212.84375 317.144531 212.941406 C 317.414062 213.039062 317.6875 213.078125 317.972656 213.058594 C 318.257812 213.039062 318.523438 212.960938 318.773438 212.828125 C 319.023438 212.691406 319.234375 212.511719 319.410156 212.289062 C 320.53125 211.148438 321.78125 210.179688 323.164062 209.382812 C 324.644531 208.746094 326.1875 208.316406 327.785156 208.089844 C 329.378906 207.867188 330.980469 207.855469 332.578125 208.058594 C 334.179688 208.261719 335.722656 208.671875 337.214844 209.289062 C 338.703125 209.90625 340.089844 210.707031 341.363281 211.691406 C 341.851562 212.097656 342.402344 212.414062 343.167969 212.945312 C 343.71875 212.160156 344.207031 211.503906 344.652344 210.824219 C 349.445312 203.125 359.796875 201.703125 366.375 204.097656 C 369.066406 205.246094 371.492188 206.808594 373.648438 208.789062 C 374.042969 209.046875 374.355469 209.386719 374.582031 209.804688 C 376.386719 213.921875 378.484375 217.949219 378.824219 222.53125 C 378.824219 223.464844 379.226562 224.355469 379.269531 225.289062 C 379.503906 227.410156 379.503906 229.53125 379.269531 231.652344 C 379.175781 231.996094 379.050781 232.328125 378.890625 232.644531 C 378.730469 232.960938 378.539062 233.257812 378.320312 233.539062 C 378.097656 233.816406 377.851562 234.070312 377.582031 234.300781 C 377.308594 234.53125 377.015625 234.730469 376.707031 234.898438 C 376.394531 235.070312 376.066406 235.207031 375.726562 235.3125 C 375.386719 235.417969 375.042969 235.488281 374.6875 235.519531 C 374.335938 235.554688 373.980469 235.554688 373.628906 235.515625 C 373.273438 235.480469 372.925781 235.410156 372.589844 235.300781 C 372.296875 235.207031 372.019531 235.089844 371.753906 234.941406 C 371.484375 234.796875 371.234375 234.625 371 234.429688 C 370.765625 234.234375 370.554688 234.019531 370.359375 233.78125 C 370.167969 233.546875 370 233.292969 369.855469 233.023438 C 369.710938 232.757812 369.59375 232.476562 369.503906 232.1875 C 369.414062 231.894531 369.351562 231.597656 369.320312 231.296875 C 369.285156 230.992188 369.28125 230.6875 369.308594 230.386719 C 369.332031 230.082031 369.386719 229.785156 369.46875 229.488281 C 369.679688 228.023438 369.738281 226.546875 369.644531 225.066406 C 369.554688 223.585938 369.3125 222.128906 368.925781 220.699219 C 368.539062 219.269531 368.007812 217.890625 367.339844 216.566406 C 366.671875 215.242188 365.875 214 364.953125 212.839844 C 364.660156 212.449219 364.328125 212.097656 363.953125 211.785156 C 363.582031 211.472656 363.179688 211.207031 362.742188 210.988281 C 362.308594 210.765625 361.855469 210.597656 361.382812 210.484375 C 360.910156 210.367188 360.433594 210.304688 359.945312 210.300781 C 359.457031 210.292969 358.976562 210.34375 358.503906 210.445312 C 358.027344 210.550781 357.570312 210.707031 357.128906 210.917969 C 356.691406 211.125 356.28125 211.382812 355.898438 211.683594 C 355.519531 211.988281 355.179688 212.328125 354.875 212.710938 C 353.578125 214.433594 352.488281 216.277344 351.609375 218.246094 C 350.800781 219.945312 350.144531 221.699219 349.636719 223.507812 C 348.894531 225.765625 348.625 228.078125 348.832031 230.445312 C 349.128906 233.394531 346.921875 235.28125 343.359375 235.515625 C 340.601562 235.707031 338.988281 234.199219 338.542969 231.273438 C 338.1875 228.40625 337.644531 225.578125 336.910156 222.789062 C 336.296875 220.703125 335.328125 218.804688 334.003906 217.082031 C 331.5 213.855469 328.171875 214.089844 325.921875 217.484375 C 324.191406 220.164062 323.335938 223.097656 323.355469 226.289062 C 323.320312 228.414062 323.398438 230.535156 323.589844 232.652344 C 323.640625 233.171875 323.605469 233.683594 323.484375 234.191406 C 323.363281 234.699219 323.164062 235.175781 322.886719 235.617188 C 322.605469 236.058594 322.265625 236.441406 321.859375 236.769531 C 321.453125 237.097656 321.003906 237.351562 320.511719 237.53125 C 320.007812 237.84375 319.46875 238.074219 318.894531 238.222656 C 318.320312 238.371094 317.738281 238.433594 317.144531 238.402344 C 316.550781 238.375 315.976562 238.257812 315.417969 238.054688 C 314.859375 237.851562 314.34375 237.570312 313.875 237.210938 C 313.320312 236.65625 312.945312 236 312.742188 235.242188 C 312.542969 234.484375 312.542969 233.726562 312.75 232.96875 C 312.875 231.398438 313.089844 229.808594 313.320312 228.238281 C 313.957031 224.230469 312.132812 220.898438 310.226562 217.632812 C 309.296875 216.417969 308.132812 215.511719 306.726562 214.917969 C 306.234375 214.621094 305.703125 214.421875 305.136719 214.324219 C 304.570312 214.226562 304.003906 214.238281 303.441406 214.355469 C 302.878906 214.476562 302.355469 214.691406 301.875 215.007812 C 301.394531 215.324219 300.988281 215.71875 300.660156 216.191406 C 298.726562 218.480469 296.777344 220.773438 295.058594 223.210938 C 293.335938 225.777344 292.46875 228.605469 292.449219 231.695312 C 292.507812 232.214844 292.480469 232.726562 292.367188 233.238281 C 292.253906 233.746094 292.058594 234.222656 291.78125 234.664062 C 291.507812 235.105469 291.167969 235.492188 290.761719 235.820312 C 290.355469 236.148438 289.90625 236.398438 289.417969 236.574219 C 289.058594 236.71875 288.6875 236.820312 288.304688 236.878906 C 287.921875 236.9375 287.535156 236.953125 287.148438 236.921875 C 286.761719 236.894531 286.386719 236.820312 286.015625 236.699219 C 285.648438 236.582031 285.296875 236.421875 284.964844 236.222656 C 284.632812 236.023438 284.328125 235.789062 284.050781 235.519531 C 283.773438 235.25 283.53125 234.949219 283.320312 234.625 C 283.113281 234.296875 282.945312 233.953125 282.816406 233.585938 C 282.691406 233.21875 282.605469 232.84375 282.566406 232.460938 C 282.558594 229.925781 282.25 227.429688 281.632812 224.972656 C 280.535156 221.289062 278.597656 218.121094 275.820312 215.46875 C 275.480469 215.144531 275.105469 214.875 274.6875 214.664062 C 274.269531 214.453125 273.828125 214.3125 273.367188 214.234375 C 272.902344 214.15625 272.441406 214.148438 271.976562 214.210938 C 271.511719 214.273438 271.070312 214.402344 270.644531 214.597656 C 266.402344 216.0625 264.28125 219.457031 262.328125 223.085938 C 260.828125 225.578125 260.121094 228.277344 260.207031 231.1875 C 260.25 231.664062 260.214844 232.132812 260.097656 232.597656 C 259.984375 233.0625 259.796875 233.496094 259.535156 233.894531 C 259.269531 234.296875 258.949219 234.640625 258.570312 234.933594 C 258.191406 235.226562 257.777344 235.449219 257.324219 235.597656 C 256.839844 235.796875 256.335938 235.925781 255.816406 235.984375 C 255.296875 236.046875 254.78125 236.035156 254.265625 235.953125 C 253.75 235.871094 253.253906 235.71875 252.777344 235.5 C 252.304688 235.28125 251.867188 235.003906 251.46875 234.664062 C 250.96875 234.210938 250.605469 233.667969 250.382812 233.03125 C 250.15625 232.398438 250.09375 231.746094 250.195312 231.082031 C 250.746094 225.90625 248.203125 221.621094 246.164062 217.207031 C 245.359375 215.449219 244.59375 215.40625 242.707031 215.957031 C 241.328125 216.363281 240.011719 216.910156 238.75 217.601562 C 237.492188 218.292969 236.320312 219.109375 235.238281 220.054688 C 234.15625 221 233.1875 222.050781 232.332031 223.203125 C 231.480469 224.359375 230.757812 225.589844 230.171875 226.902344 C 229.640625 228.277344 229.265625 229.691406 229.046875 231.144531 C 228.914062 231.789062 228.816406 232.441406 228.75 233.097656 C 228.738281 233.546875 228.652344 233.988281 228.5 234.414062 C 228.347656 234.839844 228.132812 235.230469 227.851562 235.589844 C 227.574219 235.945312 227.246094 236.25 226.871094 236.5 C 226.496094 236.753906 226.089844 236.941406 225.652344 237.0625 C 225.171875 237.1875 224.679688 237.25 224.183594 237.242188 C 223.683594 237.234375 223.195312 237.160156 222.71875 237.019531 C 222.238281 236.878906 221.789062 236.679688 221.363281 236.414062 C 220.941406 236.152344 220.558594 235.839844 220.222656 235.472656 C 219.59375 234.683594 219.296875 233.785156 219.332031 232.777344 C 219.734375 227.878906 217.953125 223.53125 216.214844 219.179688 C 214.984375 216.042969 213.390625 215.339844 210.082031 215.46875 C 209.320312 215.511719 208.574219 215.644531 207.847656 215.871094 C 207.117188 216.101562 206.429688 216.414062 205.777344 216.816406 C 205.128906 217.214844 204.539062 217.6875 204.007812 218.238281 C 203.472656 218.785156 203.019531 219.390625 202.636719 220.050781 C 201.183594 221.917969 200.046875 223.960938 199.230469 226.179688 C 198.410156 228.398438 197.949219 230.691406 197.84375 233.054688 C 197.855469 233.484375 197.800781 233.90625 197.679688 234.320312 C 197.554688 234.734375 197.375 235.121094 197.128906 235.476562 C 196.886719 235.832031 196.59375 236.144531 196.25 236.40625 C 195.910156 236.671875 195.535156 236.875 195.128906 237.019531 C 194.289062 237.386719 193.410156 237.523438 192.5 237.425781 C 191.585938 237.324219 190.757812 237.007812 190.015625 236.46875 C 189.359375 235.839844 188.894531 235.09375 188.625 234.226562 C 188.351562 233.359375 188.308594 232.480469 188.488281 231.589844 C 188.664062 229.183594 188.464844 226.804688 187.898438 224.457031 C 187.328125 222.109375 186.414062 219.90625 185.160156 217.84375 C 182.042969 212.839844 179.855469 212.289062 174.554688 215.914062 C 173.425781 216.71875 172.492188 217.710938 171.757812 218.886719 C 171.023438 220.0625 170.539062 221.335938 170.3125 222.703125 C 169.246094 226.660156 169.042969 230.664062 169.695312 234.707031 C 169.726562 235.082031 169.726562 235.457031 169.695312 235.832031 C 169.746094 236.296875 169.730469 236.753906 169.652344 237.214844 C 169.570312 237.671875 169.429688 238.109375 169.222656 238.527344 C 169.019531 238.945312 168.757812 239.328125 168.445312 239.671875 C 168.132812 240.015625 167.777344 240.308594 167.378906 240.550781 C 166.980469 240.792969 166.558594 240.976562 166.109375 241.097656 C 165.660156 241.21875 165.203125 241.277344 164.738281 241.269531 C 164.273438 241.261719 163.816406 241.1875 163.371094 241.050781 C 162.929688 240.910156 162.511719 240.714844 162.121094 240.457031 C 161.222656 239.921875 160.664062 239.144531 160.449219 238.125 C 159.9375 230.359375 160.320312 222.851562 164.179688 215.808594 C 164.386719 215.386719 164.648438 215.007812 164.964844 214.664062 C 166.871094 212.6875 169.050781 211.085938 171.507812 209.863281 C 173.96875 208.640625 176.558594 207.863281 179.285156 207.535156 C 180.554688 207.359375 181.824219 207.363281 183.089844 207.558594 C 184.359375 207.75 185.574219 208.117188 186.734375 208.664062 C 187.894531 209.210938 188.953125 209.910156 189.90625 210.765625 C 190.863281 211.621094 191.679688 212.59375 192.351562 213.6875 C 193.027344 214.683594 193.75 215.660156 194.664062 216.953125 Z M 194.664062 216.953125 " fill-opacity="1" fill-rule="nonzero"/></svg>