<svg xmlns="http://www.w3.org/2000/svg" xmlns:xlink="http://www.w3.org/1999/xlink" width="500" zoomAndPan="magnify" viewBox="0 0 375 374.999991" height="500" preserveAspectRatio="xMidYMid meet" version="1.0"><defs><clipPath id="fa28882552"><path d="M 61 201 L 86 201 L 86 213 L 61 213 Z M 61 201 " clip-rule="nonzero"/></clipPath><clipPath id="549afdc27d"><path d="M 0.00390625 223.425781 L 27.300781 83.5625 L 374.746094 151.375 L 347.449219 291.234375 Z M 0.00390625 223.425781 " clip-rule="nonzero"/></clipPath><clipPath id="2ebb6bc0f1"><path d="M 0.00390625 223.425781 L 27.300781 83.5625 L 374.746094 151.375 L 347.449219 291.234375 Z M 0.00390625 223.425781 " clip-rule="nonzero"/></clipPath><clipPath id="bed588d66e"><path d="M 311 140 L 336 140 L 336 152 L 311 152 Z M 311 140 " clip-rule="nonzero"/></clipPath><clipPath id="4ab86dab08"><path d="M 0.00390625 223.425781 L 27.300781 83.5625 L 374.746094 151.375 L 347.449219 291.234375 Z M 0.00390625 223.425781 " clip-rule="nonzero"/></clipPath><clipPath id="be57c461c8"><path d="M 0.00390625 223.425781 L 27.300781 83.5625 L 374.746094 151.375 L 347.449219 291.234375 Z M 0.00390625 223.425781 " clip-rule="nonzero"/></clipPath><clipPath id="3586074b5a"><path d="M 288 151 L 313 151 L 313 164 L 288 164 Z M 288 151 " clip-rule="nonzero"/></clipPath><clipPath id="f1e0464e80"><path d="M 0.00390625 223.425781 L 27.300781 83.5625 L 374.746094 151.375 L 347.449219 291.234375 Z M 0.00390625 223.425781 " clip-rule="nonzero"/></clipPath><clipPath id="6cc5badaee"><path d="M 0.00390625 223.425781 L 27.300781 83.5625 L 374.746094 151.375 L 347.449219 291.234375 Z M 0.00390625 223.425781 " clip-rule="nonzero"/></clipPath><clipPath id="406c676496"><path d="M 126 201 L 150 201 L 150 213 L 126 213 Z M 126 201 " clip-rule="nonzero"/></clipPath><clipPath id="e0fd06328a"><path d="M 0.00390625 223.425781 L 27.300781 83.5625 L 374.746094 151.375 L 347.449219 291.234375 Z M 0.00390625 223.425781 " clip-rule="nonzero"/></clipPath><clipPath id="8e049123c0"><path d="M 0.00390625 223.425781 L 27.300781 83.5625 L 374.746094 151.375 L 347.449219 291.234375 Z M 0.00390625 223.425781 " clip-rule="nonzero"/></clipPath><clipPath id="658cbdc09c"><path d="M 158 208 L 180 208 L 180 220 L 158 220 Z M 158 208 " clip-rule="nonzero"/></clipPath><clipPath id="bab0cc4c5f"><path d="M 0.00390625 223.425781 L 27.300781 83.5625 L 374.746094 151.375 L 347.449219 291.234375 Z M 0.00390625 223.425781 " clip-rule="nonzero"/></clipPath><clipPath id="c20637b4db"><path d="M 0.00390625 223.425781 L 27.300781 83.5625 L 374.746094 151.375 L 347.449219 291.234375 Z M 0.00390625 223.425781 " clip-rule="nonzero"/></clipPath><clipPath id="cfce90766f"><path d="M 69 148 L 93 148 L 93 161 L 69 161 Z M 69 148 " clip-rule="nonzero"/></clipPath><clipPath id="855c0a613c"><path d="M 0.00390625 223.425781 L 27.300781 83.5625 L 374.746094 151.375 L 347.449219 291.234375 Z M 0.00390625 223.425781 " clip-rule="nonzero"/></clipPath><clipPath id="2c146a88d0"><path d="M 0.00390625 223.425781 L 27.300781 83.5625 L 374.746094 151.375 L 347.449219 291.234375 Z M 0.00390625 223.425781 " clip-rule="nonzero"/></clipPath><clipPath id="fc3debfb01"><path d="M 325 160 L 348 160 L 348 173 L 325 173 Z M 325 160 " clip-rule="nonzero"/></clipPath><clipPath id="aa3f515109"><path d="M 0.00390625 223.425781 L 27.300781 83.5625 L 374.746094 151.375 L 347.449219 291.234375 Z M 0.00390625 223.425781 " clip-rule="nonzero"/></clipPath><clipPath id="834697ae56"><path d="M 0.00390625 223.425781 L 27.300781 83.5625 L 374.746094 151.375 L 347.449219 291.234375 Z M 0.00390625 223.425781 " clip-rule="nonzero"/></clipPath><clipPath id="85437fe634"><path d="M 153 190 L 174 190 L 174 201 L 153 201 Z M 153 190 " clip-rule="nonzero"/></clipPath><clipPath id="860845abee"><path d="M 0.00390625 223.425781 L 27.300781 83.5625 L 374.746094 151.375 L 347.449219 291.234375 Z M 0.00390625 223.425781 " clip-rule="nonzero"/></clipPath><clipPath id="46addbbe28"><path d="M 0.00390625 223.425781 L 27.300781 83.5625 L 374.746094 151.375 L 347.449219 291.234375 Z M 0.00390625 223.425781 " clip-rule="nonzero"/></clipPath><clipPath id="90d5e3032d"><path d="M 187 194 L 208 194 L 208 205 L 187 205 Z M 187 194 " clip-rule="nonzero"/></clipPath><clipPath id="6854120d4b"><path d="M 0.00390625 223.425781 L 27.300781 83.5625 L 374.746094 151.375 L 347.449219 291.234375 Z M 0.00390625 223.425781 " clip-rule="nonzero"/></clipPath><clipPath id="b87266d8db"><path d="M 0.00390625 223.425781 L 27.300781 83.5625 L 374.746094 151.375 L 347.449219 291.234375 Z M 0.00390625 223.425781 " clip-rule="nonzero"/></clipPath><clipPath id="2cf6240f6b"><path d="M 261 170 L 282 170 L 282 181 L 261 181 Z M 261 170 " clip-rule="nonzero"/></clipPath><clipPath id="533c95a6c0"><path d="M 0.00390625 223.425781 L 27.300781 83.5625 L 374.746094 151.375 L 347.449219 291.234375 Z M 0.00390625 223.425781 " clip-rule="nonzero"/></clipPath><clipPath id="8039817204"><path d="M 0.00390625 223.425781 L 27.300781 83.5625 L 374.746094 151.375 L 347.449219 291.234375 Z M 0.00390625 223.425781 " clip-rule="nonzero"/></clipPath><clipPath id="cc49c13419"><path d="M 98 200 L 119 200 L 119 211 L 98 211 Z M 98 200 " clip-rule="nonzero"/></clipPath><clipPath id="36fe7472b5"><path d="M 0.00390625 223.425781 L 27.300781 83.5625 L 374.746094 151.375 L 347.449219 291.234375 Z M 0.00390625 223.425781 " clip-rule="nonzero"/></clipPath><clipPath id="cba5f27446"><path d="M 0.00390625 223.425781 L 27.300781 83.5625 L 374.746094 151.375 L 347.449219 291.234375 Z M 0.00390625 223.425781 " clip-rule="nonzero"/></clipPath><clipPath id="69f6d24b31"><path d="M 238 186 L 260 186 L 260 196 L 238 196 Z M 238 186 " clip-rule="nonzero"/></clipPath><clipPath id="c9e93234b9"><path d="M 0.00390625 223.425781 L 27.300781 83.5625 L 374.746094 151.375 L 347.449219 291.234375 Z M 0.00390625 223.425781 " clip-rule="nonzero"/></clipPath><clipPath id="77ac397aa7"><path d="M 0.00390625 223.425781 L 27.300781 83.5625 L 374.746094 151.375 L 347.449219 291.234375 Z M 0.00390625 223.425781 " clip-rule="nonzero"/></clipPath><clipPath id="0e3a3156c4"><path d="M 111 157 L 131 157 L 131 168 L 111 168 Z M 111 157 " clip-rule="nonzero"/></clipPath><clipPath id="9fa10f7289"><path d="M 0.00390625 223.425781 L 27.300781 83.5625 L 374.746094 151.375 L 347.449219 291.234375 Z M 0.00390625 223.425781 " clip-rule="nonzero"/></clipPath><clipPath id="9dd62b72ef"><path d="M 0.00390625 223.425781 L 27.300781 83.5625 L 374.746094 151.375 L 347.449219 291.234375 Z M 0.00390625 223.425781 " clip-rule="nonzero"/></clipPath><clipPath id="9ece9b693b"><path d="M 89 178 L 111 178 L 111 189 L 89 189 Z M 89 178 " clip-rule="nonzero"/></clipPath><clipPath id="734b5d31d2"><path d="M 0.00390625 223.425781 L 27.300781 83.5625 L 374.746094 151.375 L 347.449219 291.234375 Z M 0.00390625 223.425781 " clip-rule="nonzero"/></clipPath><clipPath id="9be9e0ee0f"><path d="M 0.00390625 223.425781 L 27.300781 83.5625 L 374.746094 151.375 L 347.449219 291.234375 Z M 0.00390625 223.425781 " clip-rule="nonzero"/></clipPath><clipPath id="4be21dbd88"><path d="M 162 173 L 184 173 L 184 184 L 162 184 Z M 162 173 " clip-rule="nonzero"/></clipPath><clipPath id="c89461170d"><path d="M 0.00390625 223.425781 L 27.300781 83.5625 L 374.746094 151.375 L 347.449219 291.234375 Z M 0.00390625 223.425781 " clip-rule="nonzero"/></clipPath><clipPath id="2a75f9d6d9"><path d="M 0.00390625 223.425781 L 27.300781 83.5625 L 374.746094 151.375 L 347.449219 291.234375 Z M 0.00390625 223.425781 " clip-rule="nonzero"/></clipPath><clipPath id="ff042a3f24"><path d="M 24 195 L 46 195 L 46 206 L 24 206 Z M 24 195 " clip-rule="nonzero"/></clipPath><clipPath id="32249855ae"><path d="M 0.00390625 223.425781 L 27.300781 83.5625 L 374.746094 151.375 L 347.449219 291.234375 Z M 0.00390625 223.425781 " clip-rule="nonzero"/></clipPath><clipPath id="68a5d39321"><path d="M 0.00390625 223.425781 L 27.300781 83.5625 L 374.746094 151.375 L 347.449219 291.234375 Z M 0.00390625 223.425781 " clip-rule="nonzero"/></clipPath><clipPath id="b02da5ce8b"><path d="M 1 215 L 22 215 L 22 226 L 1 226 Z M 1 215 " clip-rule="nonzero"/></clipPath><clipPath id="192079c632"><path d="M 0.00390625 223.425781 L 27.300781 83.5625 L 374.746094 151.375 L 347.449219 291.234375 Z M 0.00390625 223.425781 " clip-rule="nonzero"/></clipPath><clipPath id="01af7d966b"><path d="M 0.00390625 223.425781 L 27.300781 83.5625 L 374.746094 151.375 L 347.449219 291.234375 Z M 0.00390625 223.425781 " clip-rule="nonzero"/></clipPath><clipPath id="5bbc995dbf"><path d="M 122 179 L 142 179 L 142 190 L 122 190 Z M 122 179 " clip-rule="nonzero"/></clipPath><clipPath id="6ff4c44708"><path d="M 0.00390625 223.425781 L 27.300781 83.5625 L 374.746094 151.375 L 347.449219 291.234375 Z M 0.00390625 223.425781 " clip-rule="nonzero"/></clipPath><clipPath id="329dba2fee"><path d="M 0.00390625 223.425781 L 27.300781 83.5625 L 374.746094 151.375 L 347.449219 291.234375 Z M 0.00390625 223.425781 " clip-rule="nonzero"/></clipPath><clipPath id="cdb9bcfb6b"><path d="M 228 204 L 248 204 L 248 216 L 228 216 Z M 228 204 " clip-rule="nonzero"/></clipPath><clipPath id="ad51ccc62e"><path d="M 0.00390625 223.425781 L 27.300781 83.5625 L 374.746094 151.375 L 347.449219 291.234375 Z M 0.00390625 223.425781 " clip-rule="nonzero"/></clipPath><clipPath id="827832f0f0"><path d="M 0.00390625 223.425781 L 27.300781 83.5625 L 374.746094 151.375 L 347.449219 291.234375 Z M 0.00390625 223.425781 " clip-rule="nonzero"/></clipPath><clipPath id="57585e1c8b"><path d="M 347 180 L 368 180 L 368 190 L 347 190 Z M 347 180 " clip-rule="nonzero"/></clipPath><clipPath id="1a49b8ba4e"><path d="M 0.00390625 223.425781 L 27.300781 83.5625 L 374.746094 151.375 L 347.449219 291.234375 Z M 0.00390625 223.425781 " clip-rule="nonzero"/></clipPath><clipPath id="588c3312a0"><path d="M 0.00390625 223.425781 L 27.300781 83.5625 L 374.746094 151.375 L 347.449219 291.234375 Z M 0.00390625 223.425781 " clip-rule="nonzero"/></clipPath><clipPath id="54b89b1f38"><path d="M 300 174 L 318 174 L 318 186 L 300 186 Z M 300 174 " clip-rule="nonzero"/></clipPath><clipPath id="26dbf093ff"><path d="M 0.00390625 223.425781 L 27.300781 83.5625 L 374.746094 151.375 L 347.449219 291.234375 Z M 0.00390625 223.425781 " clip-rule="nonzero"/></clipPath><clipPath id="3c161c74c8"><path d="M 0.00390625 223.425781 L 27.300781 83.5625 L 374.746094 151.375 L 347.449219 291.234375 Z M 0.00390625 223.425781 " clip-rule="nonzero"/></clipPath><clipPath id="d77d33fb5f"><path d="M 189 156 L 207 156 L 207 166 L 189 166 Z M 189 156 " clip-rule="nonzero"/></clipPath><clipPath id="64fcf7d02a"><path d="M 0.00390625 223.425781 L 27.300781 83.5625 L 374.746094 151.375 L 347.449219 291.234375 Z M 0.00390625 223.425781 " clip-rule="nonzero"/></clipPath><clipPath id="022d41ed3b"><path d="M 0.00390625 223.425781 L 27.300781 83.5625 L 374.746094 151.375 L 347.449219 291.234375 Z M 0.00390625 223.425781 " clip-rule="nonzero"/></clipPath><clipPath id="9d6929d81b"><path d="M 227 162 L 246 162 L 246 173 L 227 173 Z M 227 162 " clip-rule="nonzero"/></clipPath><clipPath id="7a33952d0b"><path d="M 0.00390625 223.425781 L 27.300781 83.5625 L 374.746094 151.375 L 347.449219 291.234375 Z M 0.00390625 223.425781 " clip-rule="nonzero"/></clipPath><clipPath id="d5d521c78b"><path d="M 0.00390625 223.425781 L 27.300781 83.5625 L 374.746094 151.375 L 347.449219 291.234375 Z M 0.00390625 223.425781 " clip-rule="nonzero"/></clipPath><clipPath id="e7af58ea28"><path d="M 154 152 L 171 152 L 171 162 L 154 162 Z M 154 152 " clip-rule="nonzero"/></clipPath><clipPath id="ef823376dd"><path d="M 0.00390625 223.425781 L 27.300781 83.5625 L 374.746094 151.375 L 347.449219 291.234375 Z M 0.00390625 223.425781 " clip-rule="nonzero"/></clipPath><clipPath id="a92b05aa5f"><path d="M 0.00390625 223.425781 L 27.300781 83.5625 L 374.746094 151.375 L 347.449219 291.234375 Z M 0.00390625 223.425781 " clip-rule="nonzero"/></clipPath><clipPath id="030b8af699"><path d="M 35 218 L 52 218 L 52 226 L 35 226 Z M 35 218 " clip-rule="nonzero"/></clipPath><clipPath id="1c2f7eaa93"><path d="M 0.00390625 223.425781 L 27.300781 83.5625 L 374.746094 151.375 L 347.449219 291.234375 Z M 0.00390625 223.425781 " clip-rule="nonzero"/></clipPath><clipPath id="a93a38674b"><path d="M 0.00390625 223.425781 L 27.300781 83.5625 L 374.746094 151.375 L 347.449219 291.234375 Z M 0.00390625 223.425781 " clip-rule="nonzero"/></clipPath><clipPath id="6b92959f95"><path d="M 202 179 L 218 179 L 218 189 L 202 189 Z M 202 179 " clip-rule="nonzero"/></clipPath><clipPath id="4efcd9f22b"><path d="M 0.00390625 223.425781 L 27.300781 83.5625 L 374.746094 151.375 L 347.449219 291.234375 Z M 0.00390625 223.425781 " clip-rule="nonzero"/></clipPath><clipPath id="ab42b6ef94"><path d="M 0.00390625 223.425781 L 27.300781 83.5625 L 374.746094 151.375 L 347.449219 291.234375 Z M 0.00390625 223.425781 " clip-rule="nonzero"/></clipPath></defs><g clip-path="url(#fa28882552)"><g clip-path="url(#549afdc27d)"><g clip-path="url(#2ebb6bc0f1)"><path fill="#16d6fa" d="M 85.410156 208.578125 L 83.417969 211.980469 C 80.714844 212.539062 78.050781 212.394531 75.421875 211.554688 C 71.824219 210.324219 68.140625 209.457031 64.371094 208.957031 C 62 208.753906 61.132812 207.160156 61.433594 204.328125 C 61.441406 204.097656 61.480469 203.871094 61.539062 203.648438 C 61.597656 203.421875 61.683594 203.210938 61.789062 203.003906 C 61.898438 202.796875 62.023438 202.605469 62.171875 202.429688 C 62.320312 202.253906 62.488281 202.09375 62.671875 201.953125 C 62.855469 201.808594 63.050781 201.691406 63.261719 201.59375 C 63.46875 201.492188 63.6875 201.417969 63.914062 201.367188 C 64.140625 201.316406 64.367188 201.292969 64.601562 201.289062 C 64.832031 201.289062 65.0625 201.3125 65.285156 201.363281 C 67.488281 201.6875 69.65625 202.164062 71.792969 202.789062 C 74.203125 203.417969 76.5625 204.199219 78.871094 205.128906 C 81.023438 206.039062 83.027344 207.300781 85.410156 208.578125 Z M 85.410156 208.578125 " fill-opacity="1" fill-rule="nonzero"/></g></g></g><g clip-path="url(#bed588d66e)"><g clip-path="url(#4ab86dab08)"><g clip-path="url(#be57c461c8)"><path fill="#16d6fa" d="M 335.382812 147.300781 L 335.875 151.445312 C 335.136719 151.484375 334.398438 151.46875 333.664062 151.402344 C 330.058594 150.761719 326.453125 150.066406 322.863281 149.398438 C 320.292969 148.917969 317.722656 148.394531 315.144531 147.972656 C 314.28125 147.847656 313.515625 147.507812 312.84375 146.953125 C 312.171875 146.398438 311.691406 145.710938 311.402344 144.890625 C 311.285156 144.6875 311.199219 144.472656 311.136719 144.25 C 311.074219 144.027344 311.042969 143.796875 311.035156 143.566406 C 311.03125 143.335938 311.054688 143.105469 311.109375 142.878906 C 311.160156 142.652344 311.238281 142.4375 311.347656 142.230469 C 311.453125 142.023438 311.582031 141.832031 311.734375 141.660156 C 311.890625 141.484375 312.0625 141.332031 312.253906 141.203125 C 312.445312 141.070312 312.652344 140.964844 312.871094 140.886719 C 313.085938 140.804688 313.3125 140.753906 313.542969 140.730469 C 314.183594 140.5625 314.828125 140.53125 315.480469 140.640625 C 322.480469 141.765625 329.117188 143.984375 335.382812 147.300781 Z M 335.382812 147.300781 " fill-opacity="1" fill-rule="nonzero"/></g></g></g><g clip-path="url(#3586074b5a)"><g clip-path="url(#f1e0464e80)"><g clip-path="url(#6cc5badaee)"><path fill="#16d6fa" d="M 312.621094 158.886719 C 311.542969 159.664062 310.863281 159.894531 310.804688 160.234375 C 310.246094 163.296875 307.964844 163.238281 305.714844 163.054688 C 301.519531 162.707031 297.425781 161.851562 293.441406 160.488281 C 291.714844 159.773438 290.253906 158.699219 289.058594 157.265625 C 288.777344 156.984375 288.570312 156.65625 288.433594 156.277344 C 288.15625 155.746094 288.027344 155.183594 288.046875 154.582031 C 288.070312 153.980469 288.238281 153.425781 288.554688 152.917969 C 288.9375 152.441406 289.417969 152.113281 290 151.929688 C 290.582031 151.746094 291.164062 151.738281 291.75 151.90625 C 292.398438 152.015625 293.019531 152.210938 293.617188 152.484375 C 296.394531 153.667969 299.25 154.609375 302.183594 155.304688 C 305.417969 156.257812 308.570312 157.480469 312.621094 158.886719 Z M 312.621094 158.886719 " fill-opacity="1" fill-rule="nonzero"/></g></g></g><g clip-path="url(#406c676496)"><g clip-path="url(#e0fd06328a)"><g clip-path="url(#8e049123c0)"><path fill="#16d6fa" d="M 126.703125 203.746094 C 127.019531 203.355469 127.390625 203.023438 127.808594 202.746094 C 128.226562 202.46875 128.675781 202.257812 129.160156 202.117188 C 129.640625 201.976562 130.132812 201.914062 130.636719 201.921875 C 131.136719 201.933594 131.628906 202.019531 132.101562 202.179688 C 136.910156 203.5 141.726562 204.769531 146.53125 206.101562 C 148.632812 206.679688 149.195312 207.515625 149.179688 209.800781 C 149.203125 210.207031 149.101562 210.582031 148.871094 210.917969 C 148.644531 211.257812 148.335938 211.492188 147.949219 211.621094 C 147.214844 211.882812 146.453125 212.023438 145.671875 212.042969 C 140.257812 211.871094 135.015625 210.828125 129.949219 208.90625 C 129.410156 208.742188 128.921875 208.492188 128.476562 208.152344 C 128.03125 207.8125 127.660156 207.40625 127.359375 206.933594 C 127.0625 206.457031 126.859375 205.949219 126.746094 205.398438 C 126.632812 204.851562 126.617188 204.300781 126.703125 203.746094 Z M 126.703125 203.746094 " fill-opacity="1" fill-rule="nonzero"/></g></g></g><g clip-path="url(#658cbdc09c)"><g clip-path="url(#bab0cc4c5f)"><g clip-path="url(#c20637b4db)"><path fill="#16d6fa" d="M 166.980469 217.632812 C 165.820312 217.234375 163.800781 216.65625 161.863281 215.855469 C 161.101562 215.585938 160.460938 215.148438 159.933594 214.535156 C 159.40625 213.925781 159.066406 213.222656 158.910156 212.433594 C 158.8125 212.078125 158.78125 211.722656 158.828125 211.355469 C 158.871094 210.992188 158.984375 210.652344 159.167969 210.332031 C 159.351562 210.015625 159.589844 209.742188 159.878906 209.523438 C 160.171875 209.300781 160.496094 209.144531 160.851562 209.050781 C 162.011719 208.65625 163.171875 208.667969 164.324219 209.082031 C 168.5625 210.472656 172.808594 211.832031 177.050781 213.210938 C 177.300781 213.289062 177.546875 213.386719 177.785156 213.5 C 179.382812 214.253906 180.222656 215.578125 179.929688 216.863281 C 179.835938 217.21875 179.6875 217.546875 179.484375 217.851562 C 179.28125 218.152344 179.03125 218.417969 178.742188 218.636719 C 178.453125 218.859375 178.132812 219.027344 177.789062 219.144531 C 177.441406 219.261719 177.085938 219.316406 176.71875 219.316406 C 174.886719 219.253906 173.066406 219.0625 171.257812 218.738281 C 170.101562 218.542969 168.972656 218.148438 166.980469 217.632812 Z M 166.980469 217.632812 " fill-opacity="1" fill-rule="nonzero"/></g></g></g><g clip-path="url(#cfce90766f)"><g clip-path="url(#855c0a613c)"><g clip-path="url(#2c146a88d0)"><path fill="#16d6fa" d="M 92.585938 156.628906 L 92.421875 159.769531 C 92.074219 160.097656 91.910156 160.382812 91.699219 160.425781 C 90.6875 160.65625 89.660156 160.734375 88.625 160.65625 C 82.941406 159.601562 77.445312 157.925781 72.140625 155.628906 C 71.535156 155.40625 71.039062 155.046875 70.644531 154.539062 C 70.246094 154.035156 70.015625 153.464844 69.945312 152.828125 C 69.878906 152.191406 69.980469 151.582031 70.257812 151.003906 C 70.535156 150.425781 70.945312 149.964844 71.488281 149.621094 C 71.78125 149.347656 72.121094 149.160156 72.507812 149.058594 C 72.894531 148.957031 73.28125 148.953125 73.671875 149.046875 C 74.433594 149.230469 75.183594 149.453125 75.921875 149.71875 C 81.355469 151.953125 86.773438 154.214844 92.585938 156.628906 Z M 92.585938 156.628906 " fill-opacity="1" fill-rule="nonzero"/></g></g></g><g clip-path="url(#fc3debfb01)"><g clip-path="url(#aa3f515109)"><g clip-path="url(#834697ae56)"><path fill="#16d6fa" d="M 347.847656 168 L 347.007812 172.65625 C 345.78125 172.417969 344.753906 172.292969 343.765625 172.023438 C 339.625 170.859375 335.472656 169.695312 331.386719 168.359375 C 329.933594 167.765625 328.570312 167 327.304688 166.074219 C 326.753906 165.71875 326.296875 165.265625 325.941406 164.714844 C 325.605469 164.292969 325.410156 163.816406 325.347656 163.28125 C 325.285156 162.746094 325.367188 162.238281 325.59375 161.75 C 325.753906 161.5 325.949219 161.285156 326.179688 161.097656 C 326.410156 160.910156 326.664062 160.765625 326.9375 160.660156 C 327.214844 160.554688 327.5 160.492188 327.796875 160.476562 C 328.09375 160.460938 328.382812 160.492188 328.667969 160.570312 C 330.328125 160.933594 331.964844 161.390625 333.574219 161.941406 C 337.257812 163.265625 340.921875 164.652344 344.5625 166.109375 C 345.703125 166.664062 346.796875 167.292969 347.847656 168 Z M 347.847656 168 " fill-opacity="1" fill-rule="nonzero"/></g></g></g><g clip-path="url(#85437fe634)"><g clip-path="url(#860845abee)"><g clip-path="url(#46addbbe28)"><path fill="#16d6fa" d="M 159.867188 198.570312 C 159.230469 198.445312 157.8125 198.171875 156.398438 197.933594 C 156.105469 197.894531 155.824219 197.804688 155.558594 197.671875 C 155.289062 197.535156 155.054688 197.359375 154.847656 197.144531 C 154.636719 196.929688 154.472656 196.6875 154.34375 196.417969 C 154.21875 196.148438 154.140625 195.863281 154.109375 195.566406 C 153.984375 195.226562 153.914062 194.871094 153.894531 194.507812 C 153.878906 194.148438 153.914062 193.789062 154.003906 193.4375 C 154.09375 193.085938 154.234375 192.753906 154.425781 192.445312 C 154.617188 192.132812 154.847656 191.859375 155.121094 191.621094 C 155.761719 191.027344 156.5 190.617188 157.339844 190.386719 C 158.179688 190.15625 159.023438 190.128906 159.875 190.3125 C 162.792969 191.050781 165.652344 191.972656 168.449219 193.078125 C 170.164062 194 171.726562 195.125 173.148438 196.457031 C 173.507812 196.851562 173.738281 197.3125 173.839844 197.835938 C 173.90625 198.054688 173.925781 198.28125 173.898438 198.511719 C 173.871094 198.742188 173.796875 198.957031 173.675781 199.15625 C 173.554688 199.355469 173.398438 199.519531 173.203125 199.648438 C 173.011719 199.78125 172.800781 199.867188 172.574219 199.90625 C 170.117188 200.460938 167.65625 200.476562 165.195312 199.953125 C 163.671875 199.566406 162.152344 199.164062 159.867188 198.570312 Z M 159.867188 198.570312 " fill-opacity="1" fill-rule="nonzero"/></g></g></g><g clip-path="url(#90d5e3032d)"><g clip-path="url(#6854120d4b)"><g clip-path="url(#b87266d8db)"><path fill="#16d6fa" d="M 206.753906 203.789062 C 205.816406 204.058594 204.863281 204.246094 203.894531 204.351562 C 199.285156 204.21875 194.808594 203.375 190.46875 201.816406 C 189.894531 201.652344 189.390625 201.363281 188.953125 200.957031 C 188.515625 200.546875 188.195312 200.0625 187.992188 199.5 C 187.71875 198.957031 187.609375 198.382812 187.664062 197.777344 C 187.71875 197.175781 187.925781 196.628906 188.289062 196.140625 C 188.652344 195.65625 189.113281 195.296875 189.679688 195.074219 C 190.242188 194.847656 190.824219 194.789062 191.421875 194.894531 C 196.339844 195.644531 201.089844 197 205.664062 198.957031 C 206.171875 199.238281 206.640625 199.566406 207.078125 199.945312 Z M 206.753906 203.789062 " fill-opacity="1" fill-rule="nonzero"/></g></g></g><g clip-path="url(#2cf6240f6b)"><g clip-path="url(#533c95a6c0)"><g clip-path="url(#8039817204)"><path fill="#16d6fa" d="M 281.765625 177.976562 C 281.3125 178.808594 280.769531 179.578125 280.136719 180.285156 C 279.6875 180.574219 279.195312 180.742188 278.664062 180.789062 C 278.132812 180.839844 277.617188 180.761719 277.125 180.554688 C 275.214844 180.140625 273.320312 179.625 271.417969 179.15625 C 269.015625 178.5625 266.613281 177.941406 264.199219 177.390625 C 262.035156 176.90625 260.832031 175.445312 261.191406 173.605469 C 261.265625 173.117188 261.429688 172.664062 261.679688 172.242188 C 261.929688 171.820312 262.253906 171.460938 262.644531 171.164062 C 263.039062 170.867188 263.472656 170.652344 263.945312 170.527344 C 264.421875 170.398438 264.902344 170.367188 265.390625 170.425781 C 268.753906 171.011719 271.972656 172.03125 275.058594 173.488281 C 275.875 173.894531 276.703125 174.289062 277.542969 174.648438 C 279.328125 175.277344 280.734375 176.386719 281.765625 177.976562 Z M 281.765625 177.976562 " fill-opacity="1" fill-rule="nonzero"/></g></g></g><g clip-path="url(#cc49c13419)"><g clip-path="url(#36fe7472b5)"><g clip-path="url(#cba5f27446)"><path fill="#16d6fa" d="M 104.304688 201.050781 C 108.167969 202.304688 112.039062 203.546875 115.902344 204.816406 C 118.074219 205.527344 118.640625 206.46875 118.289062 208.625 C 118.277344 208.925781 118.207031 209.214844 118.078125 209.484375 C 117.953125 209.757812 117.773438 209.992188 117.550781 210.191406 C 117.324219 210.390625 117.066406 210.539062 116.78125 210.632812 C 116.496094 210.726562 116.203125 210.757812 115.902344 210.730469 C 114.84375 210.761719 113.796875 210.664062 112.757812 210.4375 C 109.09375 209.460938 105.457031 208.375 101.804688 207.332031 C 100.421875 206.75 99.382812 205.796875 98.6875 204.464844 C 98.375 204.023438 98.222656 203.53125 98.222656 202.988281 C 98.222656 202.445312 98.375 201.953125 98.6875 201.511719 C 98.929688 201.019531 99.289062 200.648438 99.769531 200.394531 C 100.253906 200.140625 100.765625 200.050781 101.304688 200.125 C 102.335938 200.300781 103.347656 200.550781 104.339844 200.878906 Z M 104.304688 201.050781 " fill-opacity="1" fill-rule="nonzero"/></g></g></g><g clip-path="url(#69f6d24b31)"><g clip-path="url(#c9e93234b9)"><g clip-path="url(#77ac397aa7)"><path fill="#16d6fa" d="M 259.171875 195.492188 C 257.992188 195.664062 256.808594 195.726562 255.621094 195.675781 C 250.511719 195.132812 245.558594 193.933594 240.765625 192.085938 C 240.421875 191.980469 240.101562 191.824219 239.804688 191.621094 C 239.503906 191.417969 239.246094 191.171875 239.019531 190.890625 C 238.796875 190.609375 238.621094 190.296875 238.488281 189.960938 C 238.359375 189.625 238.28125 189.277344 238.253906 188.917969 C 238.207031 188.554688 238.238281 188.199219 238.347656 187.851562 C 238.457031 187.5 238.628906 187.191406 238.875 186.917969 C 239.117188 186.644531 239.40625 186.433594 239.742188 186.285156 C 240.074219 186.136719 240.425781 186.066406 240.792969 186.070312 C 241.316406 186.089844 241.832031 186.175781 242.332031 186.328125 C 246.265625 187.371094 250.195312 188.414062 254.117188 189.488281 C 254.875 189.695312 255.589844 190.046875 256.34375 190.277344 C 258.703125 190.980469 259.835938 192.449219 259.171875 195.492188 Z M 259.171875 195.492188 " fill-opacity="1" fill-rule="nonzero"/></g></g></g><g clip-path="url(#0e3a3156c4)"><g clip-path="url(#9fa10f7289)"><g clip-path="url(#9dd62b72ef)"><path fill="#16d6fa" d="M 117.839844 165.835938 C 116.183594 165.214844 114.5625 164.71875 113.039062 164.003906 C 112.671875 163.851562 112.347656 163.640625 112.058594 163.371094 C 111.773438 163.097656 111.542969 162.785156 111.371094 162.429688 C 111.203125 162.070312 111.101562 161.695312 111.066406 161.304688 C 111.035156 160.910156 111.074219 160.523438 111.183594 160.144531 C 111.292969 159.726562 111.464844 159.339844 111.695312 158.980469 C 111.929688 158.621094 112.214844 158.308594 112.550781 158.042969 C 112.886719 157.773438 113.257812 157.566406 113.660156 157.421875 C 114.0625 157.273438 114.476562 157.195312 114.90625 157.183594 C 118.222656 157.390625 121.304688 158.347656 124.152344 160.054688 C 124.972656 160.703125 125.871094 161.207031 126.855469 161.5625 C 127.652344 161.871094 128.363281 162.320312 128.984375 162.90625 C 129.609375 163.492188 130.101562 164.175781 130.460938 164.949219 C 130.746094 165.367188 130.777344 165.804688 130.554688 166.257812 C 130.332031 166.714844 129.964844 166.953125 129.460938 166.980469 C 128.8125 167.101562 128.164062 167.140625 127.507812 167.09375 C 124.261719 166.714844 121.050781 166.265625 117.839844 165.835938 Z M 117.839844 165.835938 " fill-opacity="1" fill-rule="nonzero"/></g></g></g><g clip-path="url(#9ece9b693b)"><g clip-path="url(#734b5d31d2)"><g clip-path="url(#9be9e0ee0f)"><path fill="#16d6fa" d="M 110.699219 186.238281 L 108.871094 186.875 C 108.152344 187.578125 109.253906 187.941406 109.132812 188.8125 C 107.984375 188.511719 106.855469 188.269531 105.75 187.925781 C 101.507812 186.515625 97.15625 185.691406 92.695312 185.453125 C 92.058594 185.433594 91.476562 185.253906 90.9375 184.914062 C 90.402344 184.574219 89.992188 184.117188 89.703125 183.550781 C 89.417969 182.984375 89.296875 182.382812 89.34375 181.75 C 89.386719 181.113281 89.589844 180.535156 89.953125 180.015625 C 90.140625 179.585938 90.425781 179.230469 90.804688 178.953125 C 91.179688 178.671875 91.601562 178.507812 92.070312 178.453125 C 93.238281 178.359375 94.390625 178.4375 95.535156 178.691406 C 98.4375 179.460938 101.320312 180.34375 104.171875 181.292969 C 106.234375 181.980469 108.425781 182.539062 109.328125 184.96875 C 109.488281 185.40625 110.519531 185.382812 110.699219 186.238281 Z M 110.699219 186.238281 " fill-opacity="1" fill-rule="nonzero"/></g></g></g><g clip-path="url(#4be21dbd88)"><g clip-path="url(#c89461170d)"><g clip-path="url(#2a75f9d6d9)"><path fill="#16d6fa" d="M 183.734375 179.996094 L 183.078125 183.640625 C 182.550781 183.835938 182.011719 183.953125 181.453125 183.984375 C 176.371094 183.46875 171.390625 182.460938 166.507812 180.957031 C 166.066406 180.835938 165.648438 180.652344 165.257812 180.410156 C 164.867188 180.167969 164.515625 179.878906 164.210938 179.535156 C 163.902344 179.195312 163.648438 178.816406 163.449219 178.402344 C 163.246094 177.988281 163.109375 177.554688 163.035156 177.101562 C 162.980469 176.929688 162.945312 176.753906 162.933594 176.574219 C 162.921875 176.394531 162.925781 176.214844 162.953125 176.035156 C 162.980469 175.859375 163.027344 175.683594 163.09375 175.515625 C 163.160156 175.347656 163.242188 175.191406 163.34375 175.042969 C 163.445312 174.894531 163.5625 174.757812 163.695312 174.636719 C 163.828125 174.511719 163.96875 174.40625 164.125 174.316406 C 164.28125 174.226562 164.445312 174.152344 164.617188 174.101562 C 164.789062 174.046875 164.96875 174.011719 165.148438 174 C 165.929688 173.929688 166.699219 174.015625 167.445312 174.261719 C 171.410156 175.5625 175.355469 176.917969 179.300781 178.289062 C 180.753906 178.796875 182.183594 179.394531 183.734375 179.996094 Z M 183.734375 179.996094 " fill-opacity="1" fill-rule="nonzero"/></g></g></g><g clip-path="url(#ff042a3f24)"><g clip-path="url(#32249855ae)"><g clip-path="url(#68a5d39321)"><path fill="#16d6fa" d="M 33.046875 204.757812 C 30.394531 203.78125 28.386719 203.136719 26.472656 202.304688 C 26.238281 202.214844 26.019531 202.105469 25.808594 201.976562 C 25.597656 201.84375 25.40625 201.691406 25.226562 201.523438 C 25.046875 201.351562 24.886719 201.164062 24.742188 200.964844 C 24.601562 200.761719 24.480469 200.546875 24.378906 200.320312 C 24.28125 200.09375 24.207031 199.859375 24.152344 199.617188 C 24.101562 199.375 24.074219 199.128906 24.070312 198.882812 C 24.066406 198.636719 24.085938 198.390625 24.132812 198.148438 C 24.179688 197.902344 24.246094 197.667969 24.339844 197.4375 C 24.410156 197.183594 24.519531 196.945312 24.675781 196.730469 C 24.832031 196.515625 25.019531 196.335938 25.242188 196.1875 C 25.464844 196.042969 25.707031 195.941406 25.964844 195.886719 C 26.226562 195.832031 26.488281 195.824219 26.75 195.863281 C 27.402344 195.941406 28.027344 196.113281 28.628906 196.378906 C 32.394531 197.949219 36.265625 199.179688 40.242188 200.070312 C 41.828125 200.351562 43.234375 201.023438 44.453125 202.074219 C 44.753906 202.335938 44.976562 202.652344 45.113281 203.027344 C 45.253906 203.398438 45.300781 203.785156 45.246094 204.179688 C 45.238281 204.375 45.191406 204.566406 45.109375 204.746094 C 45.027344 204.925781 44.917969 205.085938 44.773438 205.222656 C 44.632812 205.359375 44.46875 205.46875 44.285156 205.542969 C 44.105469 205.617188 43.914062 205.65625 43.714844 205.65625 C 39.929688 205.363281 36.148438 205.023438 33.046875 204.757812 Z M 33.046875 204.757812 " fill-opacity="1" fill-rule="nonzero"/></g></g></g><g clip-path="url(#b02da5ce8b)"><g clip-path="url(#192079c632)"><g clip-path="url(#01af7d966b)"><path fill="#16d6fa" d="M 21.574219 223.144531 C 20.738281 225.3125 18.941406 225.441406 17.28125 225.542969 C 15.707031 225.613281 14.144531 225.527344 12.589844 225.289062 C 10.511719 225.003906 8.460938 224.566406 6.410156 224.152344 C 4.699219 223.722656 3.292969 222.820312 2.199219 221.4375 C 1.910156 221.117188 1.6875 220.753906 1.527344 220.355469 C 1.367188 219.953125 1.285156 219.539062 1.277344 219.105469 C 1.265625 218.675781 1.332031 218.257812 1.476562 217.847656 C 1.617188 217.441406 1.828125 217.074219 2.101562 216.742188 C 2.78125 215.863281 4.53125 215.234375 5.269531 215.914062 C 8.980469 219.335938 13.941406 219.285156 18.355469 220.722656 C 19.027344 220.90625 19.640625 221.203125 20.199219 221.625 C 20.753906 222.042969 21.214844 222.550781 21.574219 223.144531 Z M 21.574219 223.144531 " fill-opacity="1" fill-rule="nonzero"/></g></g></g><g clip-path="url(#5bbc995dbf)"><g clip-path="url(#6ff4c44708)"><g clip-path="url(#329dba2fee)"><path fill="#16d6fa" d="M 141.109375 185.566406 L 140.308594 189.519531 C 139.597656 189.761719 138.863281 189.902344 138.113281 189.941406 C 133.675781 189.40625 129.457031 188.144531 125.457031 186.15625 C 124.957031 185.980469 124.515625 185.710938 124.128906 185.347656 C 123.742188 184.984375 123.453125 184.554688 123.253906 184.0625 C 123.003906 183.507812 122.917969 182.929688 123.003906 182.328125 C 123.085938 181.722656 123.324219 181.1875 123.714844 180.722656 C 124.105469 180.257812 124.589844 179.929688 125.167969 179.742188 C 125.746094 179.550781 126.332031 179.53125 126.921875 179.679688 C 128.953125 180.183594 130.921875 180.867188 132.824219 181.730469 C 135.585938 182.902344 138.25 184.234375 141.109375 185.566406 Z M 141.109375 185.566406 " fill-opacity="1" fill-rule="nonzero"/></g></g></g><g clip-path="url(#cdb9bcfb6b)"><g clip-path="url(#ad51ccc62e)"><g clip-path="url(#827832f0f0)"><path fill="#16d6fa" d="M 239.261719 214.5625 C 236.402344 213.792969 233.695312 212.65625 231.144531 211.15625 C 230.53125 210.890625 230 210.511719 229.546875 210.023438 C 229.09375 209.53125 228.757812 208.972656 228.539062 208.34375 C 228.316406 207.777344 228.269531 207.199219 228.390625 206.601562 C 228.515625 206.007812 228.789062 205.496094 229.21875 205.066406 C 229.558594 204.730469 229.964844 204.523438 230.4375 204.445312 C 230.910156 204.371094 231.359375 204.4375 231.789062 204.648438 C 233.613281 205.378906 235.410156 206.167969 237.1875 207.023438 C 239.304688 208.039062 241.394531 209.148438 243.484375 210.21875 C 244.304688 210.636719 245.128906 211.035156 245.929688 211.488281 C 246.144531 211.582031 246.332031 211.710938 246.5 211.875 C 246.667969 212.035156 246.804688 212.21875 246.910156 212.425781 C 247.011719 212.636719 247.078125 212.855469 247.105469 213.085938 C 247.132812 213.316406 247.121094 213.546875 247.070312 213.773438 C 247.011719 214.066406 246.898438 214.335938 246.738281 214.585938 C 246.578125 214.835938 246.375 215.046875 246.136719 215.222656 C 245.894531 215.398438 245.632812 215.523438 245.34375 215.597656 C 245.054688 215.675781 244.765625 215.695312 244.46875 215.664062 C 243.292969 215.535156 242.132812 215.339844 240.980469 215.085938 C 240.46875 214.980469 239.964844 214.78125 239.261719 214.5625 Z M 239.261719 214.5625 " fill-opacity="1" fill-rule="nonzero"/></g></g></g><g clip-path="url(#57585e1c8b)"><g clip-path="url(#1a49b8ba4e)"><g clip-path="url(#588c3312a0)"><path fill="#16d6fa" d="M 367.683594 185.007812 C 367.523438 189.773438 366.335938 189.773438 363.167969 189.410156 C 359.132812 188.910156 355.214844 187.953125 351.402344 186.542969 C 350.542969 186.226562 349.742188 185.796875 349.007812 185.246094 C 348.574219 184.921875 348.265625 184.507812 348.085938 183.996094 C 347.90625 183.488281 347.882812 182.972656 348.015625 182.449219 C 348.070312 182.1875 348.164062 181.945312 348.296875 181.714844 C 348.429688 181.484375 348.597656 181.285156 348.800781 181.109375 C 349 180.9375 349.226562 180.800781 349.472656 180.703125 C 349.71875 180.605469 349.972656 180.546875 350.238281 180.535156 C 351.148438 180.4375 352.042969 180.503906 352.929688 180.738281 C 357.8125 182.105469 362.679688 183.550781 367.683594 185.007812 Z M 367.683594 185.007812 " fill-opacity="1" fill-rule="nonzero"/></g></g></g><g clip-path="url(#54b89b1f38)"><g clip-path="url(#26dbf093ff)"><g clip-path="url(#3c161c74c8)"><path fill="#16d6fa" d="M 311.246094 184.617188 C 308.457031 183.511719 305.648438 182.4375 302.878906 181.289062 C 302.503906 181.152344 302.160156 180.964844 301.84375 180.722656 C 301.527344 180.480469 301.253906 180.199219 301.027344 179.871094 C 300.796875 179.546875 300.625 179.195312 300.503906 178.816406 C 300.382812 178.4375 300.320312 178.046875 300.320312 177.648438 C 300.28125 177.285156 300.320312 176.925781 300.429688 176.578125 C 300.542969 176.226562 300.71875 175.914062 300.960938 175.640625 C 301.203125 175.363281 301.492188 175.148438 301.824219 174.992188 C 302.15625 174.839844 302.507812 174.757812 302.875 174.75 C 303.535156 174.722656 304.179688 174.8125 304.808594 175.023438 C 308.59375 176.171875 312.128906 177.84375 315.421875 180.035156 C 316.082031 180.363281 316.605469 180.847656 316.988281 181.480469 C 317.371094 182.109375 317.558594 182.796875 317.542969 183.535156 C 317.453125 184.761719 316.734375 185.597656 315.542969 185.398438 C 314.132812 185.160156 312.753906 184.703125 311.363281 184.34375 Z M 311.246094 184.617188 " fill-opacity="1" fill-rule="nonzero"/></g></g></g><g clip-path="url(#d77d33fb5f)"><g clip-path="url(#64fcf7d02a)"><g clip-path="url(#022d41ed3b)"><path fill="#16d6fa" d="M 194.972656 164.683594 C 193.929688 164.183594 192.492188 163.570312 191.132812 162.820312 C 190.546875 162.488281 190.089844 162.035156 189.757812 161.453125 C 189.421875 160.871094 189.261719 160.246094 189.273438 159.574219 C 189.253906 159.363281 189.257812 159.152344 189.289062 158.941406 C 189.316406 158.730469 189.367188 158.523438 189.441406 158.324219 C 189.511719 158.125 189.609375 157.9375 189.722656 157.757812 C 189.839844 157.578125 189.972656 157.414062 190.125 157.265625 C 190.277344 157.117188 190.445312 156.984375 190.625 156.875 C 190.804688 156.761719 190.996094 156.671875 191.199219 156.601562 C 191.402344 156.53125 191.605469 156.484375 191.820312 156.460938 C 192.03125 156.4375 192.242188 156.4375 192.453125 156.460938 C 193.097656 156.542969 193.726562 156.699219 194.335938 156.925781 C 197.308594 157.886719 200.28125 158.859375 203.25 159.851562 C 203.996094 160.082031 204.726562 160.359375 205.4375 160.683594 C 206.707031 161.308594 207.019531 161.902344 206.863281 163.152344 C 206.871094 163.449219 206.820312 163.738281 206.71875 164.019531 C 206.613281 164.296875 206.460938 164.546875 206.257812 164.769531 C 206.058594 164.988281 205.824219 165.164062 205.554688 165.296875 C 205.285156 165.425781 205.003906 165.5 204.703125 165.519531 C 204.070312 165.6875 203.421875 165.753906 202.765625 165.722656 C 200.3125 165.441406 197.867188 165.074219 194.972656 164.683594 Z M 194.972656 164.683594 " fill-opacity="1" fill-rule="nonzero"/></g></g></g><g clip-path="url(#9d6929d81b)"><g clip-path="url(#7a33952d0b)"><g clip-path="url(#d5d521c78b)"><path fill="#16d6fa" d="M 245.441406 169.980469 C 245.226562 170.449219 244.933594 170.867188 244.566406 171.234375 C 244.199219 171.601562 243.78125 171.890625 243.308594 172.101562 C 242.835938 172.316406 242.339844 172.4375 241.824219 172.472656 C 241.304688 172.503906 240.800781 172.445312 240.304688 172.296875 C 236.707031 171.496094 233.257812 170.285156 229.953125 168.65625 C 229.578125 168.519531 229.238281 168.320312 228.9375 168.058594 C 228.632812 167.792969 228.390625 167.484375 228.203125 167.128906 C 228.015625 166.777344 227.898438 166.398438 227.851562 166 C 227.804688 165.605469 227.828125 165.210938 227.929688 164.824219 C 227.976562 164.492188 228.085938 164.1875 228.261719 163.902344 C 228.433594 163.621094 228.660156 163.382812 228.933594 163.191406 C 229.207031 163.003906 229.503906 162.875 229.832031 162.808594 C 230.15625 162.746094 230.484375 162.746094 230.808594 162.816406 C 231.453125 162.941406 232.082031 163.117188 232.695312 163.347656 C 235.648438 164.402344 238.625 165.398438 241.53125 166.566406 C 243.242188 167.238281 244.546875 168.375 245.441406 169.980469 Z M 245.441406 169.980469 " fill-opacity="1" fill-rule="nonzero"/></g></g></g><g clip-path="url(#e7af58ea28)"><g clip-path="url(#ef823376dd)"><g clip-path="url(#a92b05aa5f)"><path fill="#16d6fa" d="M 160.148438 160.503906 C 158.878906 160.171875 157.585938 159.921875 156.347656 159.496094 C 155.933594 159.367188 155.5625 159.167969 155.230469 158.890625 C 154.898438 158.613281 154.636719 158.28125 154.4375 157.898438 C 154.242188 157.511719 154.128906 157.105469 154.097656 156.671875 C 154.066406 156.242188 154.121094 155.820312 154.261719 155.414062 C 154.304688 155.203125 154.371094 155 154.460938 154.804688 C 154.546875 154.609375 154.65625 154.425781 154.78125 154.25 C 154.90625 154.078125 155.050781 153.917969 155.210938 153.773438 C 155.371094 153.632812 155.542969 153.507812 155.730469 153.398438 C 155.914062 153.292969 156.109375 153.207031 156.3125 153.140625 C 156.519531 153.074219 156.726562 153.027344 156.941406 153.007812 C 157.152344 152.984375 157.367188 152.984375 157.582031 153.007812 C 157.792969 153.027344 158.003906 153.074219 158.207031 153.140625 C 158.714844 153.269531 159.210938 153.429688 159.699219 153.617188 C 162.054688 154.425781 164.410156 155.230469 166.765625 156.03125 C 167.394531 156.222656 168.007812 156.449219 168.609375 156.710938 C 169.15625 157.085938 169.578125 157.570312 169.878906 158.160156 C 170.179688 158.75 170.320312 159.375 170.300781 160.039062 C 170.210938 160.808594 169.21875 161.492188 167.84375 161.691406 C 165.183594 161.90625 162.621094 161.511719 160.148438 160.503906 Z M 160.148438 160.503906 " fill-opacity="1" fill-rule="nonzero"/></g></g></g><g clip-path="url(#030b8af699)"><g clip-path="url(#1c2f7eaa93)"><g clip-path="url(#a93a38674b)"><path fill="#16d6fa" d="M 51.503906 222.539062 C 51.40625 222.984375 51.242188 223.402344 51.003906 223.792969 C 50.761719 224.183594 50.464844 224.519531 50.109375 224.808594 C 49.753906 225.09375 49.359375 225.3125 48.929688 225.464844 C 48.496094 225.617188 48.050781 225.691406 47.59375 225.6875 C 44.453125 225.691406 41.3125 225.605469 38.171875 225.453125 C 37.808594 225.429688 37.453125 225.347656 37.117188 225.207031 C 36.777344 225.066406 36.46875 224.875 36.195312 224.628906 C 35.921875 224.386719 35.691406 224.105469 35.511719 223.785156 C 35.332031 223.464844 35.207031 223.125 35.140625 222.765625 C 35.070312 222.53125 35.027344 222.289062 35.011719 222.042969 C 35 221.796875 35.011719 221.554688 35.054688 221.3125 C 35.097656 221.070312 35.167969 220.835938 35.265625 220.609375 C 35.359375 220.382812 35.484375 220.171875 35.628906 219.972656 C 35.777344 219.773438 35.945312 219.597656 36.132812 219.4375 C 36.320312 219.28125 36.523438 219.144531 36.746094 219.035156 C 36.964844 218.921875 37.195312 218.839844 37.433594 218.78125 C 37.671875 218.726562 37.914062 218.695312 38.160156 218.695312 C 42.683594 218.804688 46.976562 219.855469 51.035156 221.851562 C 51.230469 221.980469 51.328125 222.265625 51.503906 222.539062 Z M 51.503906 222.539062 " fill-opacity="1" fill-rule="nonzero"/></g></g></g><g clip-path="url(#6b92959f95)"><g clip-path="url(#4efcd9f22b)"><g clip-path="url(#ab42b6ef94)"><path fill="#16d6fa" d="M 209.027344 187.722656 C 206.9375 187.121094 205.132812 186.039062 203.613281 184.476562 C 203.367188 184.171875 203.179688 183.832031 203.050781 183.457031 C 202.921875 183.085938 202.863281 182.703125 202.867188 182.308594 C 202.875 181.914062 202.949219 181.53125 203.089844 181.164062 C 203.230469 180.792969 203.429688 180.460938 203.6875 180.164062 C 204.058594 179.769531 204.507812 179.523438 205.035156 179.417969 C 205.566406 179.3125 206.074219 179.371094 206.566406 179.589844 C 209.089844 180.683594 211.640625 181.707031 214.101562 182.902344 C 215.289062 183.449219 216.339844 184.191406 217.253906 185.121094 C 217.496094 185.367188 217.648438 185.652344 217.714844 185.988281 C 217.78125 186.324219 217.746094 186.648438 217.617188 186.964844 C 217.484375 187.28125 217.277344 187.53125 216.992188 187.722656 C 216.710938 187.914062 216.398438 188.007812 216.054688 188.007812 C 213.714844 188.070312 211.371094 187.832031 209.027344 187.722656 Z M 209.027344 187.722656 " fill-opacity="1" fill-rule="nonzero"/></g></g></g></svg>